<svg xmlns="http://www.w3.org/2000/svg" width="47.237" height="47.241" viewBox="0 0 47.237 47.241"><defs><style>.a{fill:#fff;}</style></defs><g transform="translate(91.362 -1400)"><path class="a" d="M-39.142,1400a1.783,1.783,0,0,1,1.134,1.986c-.042.519.013,1.046-.016,1.567a.629.629,0,0,0,.346.629c.709.459,1.4.949,2.1,1.413a1.654,1.654,0,0,1,.8,1.507c-.015,1.153,0,2.305-.007,3.458a1.5,1.5,0,0,1-1.647,1.625q-6.248,0-12.5,0a1.522,1.522,0,0,1-1.659-1.666c0-1.137.007-2.275,0-3.412a1.656,1.656,0,0,1,.8-1.507c.72-.47,1.437-.947,2.131-1.454a.822.822,0,0,0,.289-.546,13.916,13.916,0,0,0,.008-1.7,1.716,1.716,0,0,1,1.2-1.9Z" transform="translate(-34.784)"/><path class="a" d="M212.32,1702.5q-.631,1.353-1.749,1.183a1.521,1.521,0,0,1-.22-2.96,1.506,1.506,0,0,1,1.75.677c.085.145.147.3.219.454Z" transform="translate(-256.444 -256.457)"/><path class="a" d="M-51.359,1524.159v1.277q0,2.79,0,5.581c0,.885-.212,1.1-1.078,1.1H-64.474c-.8,0-1.037-.236-1.038-1.047,0-1.107,0-2.214,0-3.321a1.541,1.541,0,0,0-1.512-1.72,1.589,1.589,0,0,0-1.533,1.724q0,8.648,0,17.295c0,.994-.182,1.174-1.183,1.174H-87.223c-1.305,0-1.847-.541-1.847-1.846q0-9.8,0-19.6v-.646c-.261,0-.473.007-.683,0a1.537,1.537,0,0,1-1.608-1.539,1.548,1.548,0,0,1,1.646-1.508c1.968-.018,3.936-.006,5.9-.007h.45c-.031-1.171-.077-2.285-.083-3.4a1.483,1.483,0,0,1,1.629-1.634q7.54,0,15.081,0a1.525,1.525,0,0,1,1.661,1.523,1.554,1.554,0,0,1-1.68,1.519c-1.384.006-2.767,0-4.151,0h-.486l-.251,1.989h20.552a5.372,5.372,0,0,1,.69.029,1.478,1.478,0,0,1,1.313,1.477,1.5,1.5,0,0,1-1.284,1.508C-50.674,1524.133-50.982,1524.133-51.359,1524.159Zm-27.049,18.452c1.568,0,3.135,0,4.7,0a1.575,1.575,0,0,0,1.775-1.752q.007-3.3,0-6.592a1.57,1.57,0,0,0-1.759-1.767q-4.725-.006-9.451,0a1.574,1.574,0,0,0-1.753,1.774q0,3.273,0,6.546a1.582,1.582,0,0,0,1.783,1.791C-81.542,1542.613-79.975,1542.611-78.408,1542.611Zm-.038-13.159c1.122,0,2.244.007,3.365,0a1.51,1.51,0,0,0,1.617-1.515,1.525,1.525,0,0,0-1.617-1.529q-3.319-.018-6.638,0a1.514,1.514,0,0,0-1.634,1.552,1.5,1.5,0,0,0,1.634,1.494C-80.627,1529.458-79.536,1529.451-78.445,1529.451Zm19.473.184v0c.354,0,.708.02,1.06,0a1.5,1.5,0,0,0,1.409-1.445,1.451,1.451,0,0,0-1.248-1.532,13.414,13.414,0,0,0-2.435-.006,1.456,1.456,0,0,0-1.272,1.557,1.505,1.505,0,0,0,1.426,1.429C-59.681,1529.653-59.326,1529.635-58.972,1529.635Z" transform="translate(0 -98.982)"/><path class="a" d="M98.636,1654.171c.427,0,.779-.009,1.13,0a1.53,1.53,0,0,1,1.522,1.529,1.494,1.494,0,0,1-1.533,1.509q-7.194.011-14.389,0a.779.779,0,0,1-.882-.884q-.01-4.635,0-9.27c0-.613.3-.9.921-.9q6.157-.006,12.314,0c.652,0,.913.291.914.995q.006,3.205,0,6.41Zm-7.651-2.486c.337,0,.675.009,1.011,0a1.517,1.517,0,0,0,.077-3.03,20.155,20.155,0,0,0-2.114,0,1.517,1.517,0,0,0,.06,3.03C90.342,1651.694,90.664,1651.684,90.986,1651.685Z" transform="translate(-149.995 -209.976)"/></g></svg>