<svg xmlns="http://www.w3.org/2000/svg" width="47.559" height="48.37" viewBox="0 0 47.559 48.37"><defs><style>.a{fill:#fff;}</style></defs><path class="a" d="M583.256,2842c-.188-.2-.46-.367-.546-.6-.2-.55.216-1.021.87-1.023,2.046-.007,4.091,0,6.137,0h.542l1.089-5.017c1.22.033,2.408.09,3.6.09s2.355-.056,3.61-.089l1.094,5.016h.517c2,0,4,.006,6,0,.479,0,.894.074,1.05.593.151.5-.156.792-.527,1.041Z" transform="translate(-560.51 -2793.627)"/><path class="a" d="M616.924,2563.488c.009.17.022.31.022.449q0,5.808,0,11.617a2.459,2.459,0,0,1-1.86,2.571,3.526,3.526,0,0,1-.842.078q-7.957.006-15.914,0a2.473,2.473,0,0,1-2.7-2.739q0-5.737,0-11.475v-.5Z" transform="translate(-571.839 -2556.075)"/><path class="a" d="M617.411,2758.316c-.215.814-.354,1.589-.624,2.315a8.925,8.925,0,0,1-8.352,5.839,39.864,39.864,0,0,1-4.758-.121,8.952,8.952,0,0,1-7.517-7.544c-.019-.152-.023-.305-.037-.488Z" transform="translate(-572.274 -2726.315)"/><path class="a" d="M589.188,2722.377q-5.691,0-11.382,0a1.63,1.63,0,0,1-1.585-2.238,1.536,1.536,0,0,1,1.177-.986,3.238,3.238,0,0,1,.609-.05q11.217,0,22.433,0a2.614,2.614,0,0,1,.833.117,1.6,1.6,0,0,1,1.045,1.715,1.627,1.627,0,0,1-1.513,1.436c-.157.01-.315,0-.472,0Z" transform="translate(-554.776 -2692.047)"/><path class="a" d="M411.282,2517.853a5.974,5.974,0,0,1,.3-1.1,6.936,6.936,0,0,1,.953-1.6,1.535,1.535,0,0,1,2.374-.024,4.193,4.193,0,0,1,1.127,2.241,5.874,5.874,0,0,1-.4,3.824,3.878,3.878,0,0,1-.686,1.006,1.586,1.586,0,0,1-2.484-.011,4.29,4.29,0,0,1-1.085-2.315c-.044-.253-.12-.367-.408-.388a3.986,3.986,0,0,1-3.761-3.644,11.6,11.6,0,0,1,.063-2.915,3.994,3.994,0,0,1,3.93-3.249c1.81-.024,3.621-.006,5.432-.007.946,0,1.161-.228,1.185-1.158a1.26,1.26,0,0,0-.393-1.065,1.58,1.58,0,0,1,.121-2.279,1.637,1.637,0,0,1,2.295.112,1.6,1.6,0,0,1-.093,2.286.8.8,0,0,0-.3.714,4.692,4.692,0,0,1-.09,1.218,2.384,2.384,0,0,1-2.414,1.8c-1.826.012-3.653,0-5.479.006a2.326,2.326,0,0,0-2.537,1.813,9.512,9.512,0,0,0,0,2.947A2.27,2.27,0,0,0,411.282,2517.853Z" transform="translate(-407.151 -2504.747)"/><path class="a" d="M482.448,2590.839a7.732,7.732,0,0,0,0-8.208h.458c1.793,0,3.586.012,5.379-.006a2.031,2.031,0,0,1,1.675.8,5.848,5.848,0,0,1-.007,6.624,2.037,2.037,0,0,1-1.679.794C486.356,2590.827,484.438,2590.839,482.448,2590.839Z" transform="translate(-472.945 -2572.797)"/><path class="a" d="M450.687,2653.146v5.744c-.906,0-1.8.01-2.689-.012-.121,0-.264-.147-.351-.261-.5-.647-.982-1.31-1.478-1.96a1.635,1.635,0,0,0-2.365-.421,1.847,1.847,0,0,0-.313.211c-.958.94-2.143.9-3.385.775v-5.152a4.186,4.186,0,0,0,3.476,1.084c2.188-.03,4.377-.009,6.565-.009Z" transform="translate(-435.947 -2633.478)"/><path class="a" d="M595.067,2538.856q-5.57,0-11.139,0a2.184,2.184,0,0,1-.56-.045.806.806,0,0,1,.031-1.566,2.28,2.28,0,0,1,.516-.037q11.139,0,22.278,0a2.443,2.443,0,0,1,.469.029.808.808,0,0,1,.013,1.59,2.386,2.386,0,0,1-.516.03Q600.613,2538.857,595.067,2538.856Z" transform="translate(-560.604 -2533.108)"/><path class="a" d="M621.839,2695.028v-1.571h14.7v1.571Z" transform="translate(-594.745 -2669.641)"/><path class="a" d="M666.787,2512.969h-4.513a2.258,2.258,0,0,1,2.093-1.608A2.342,2.342,0,0,1,666.787,2512.969Z" transform="translate(-630.077 -2510.523)"/></svg>