<svg xmlns="http://www.w3.org/2000/svg" width="36.746" height="48.235" viewBox="0 0 36.746 48.235"><defs><style>.a{fill:#fff;}</style></defs><path class="a" d="M10.166,2504.747H39.185a1.82,1.82,0,0,1,1.049,1.9q-.027,21.432-.013,42.864v.649c.511,0,.978-.015,1.444,0a1.4,1.4,0,0,1,.615,2.654c-.092.052-.179.111-.269.166H34.568q0-20.419,0-40.839c0-1.231-.512-1.743-1.743-1.743H16.62c-1.362,0-1.837.475-1.837,1.838v40.745H7.34a.513.513,0,0,0-.1-.088,1.423,1.423,0,0,1-.9-1.62,1.448,1.448,0,0,1,1.536-1.117c.4,0,.808,0,1.256,0v-.646q0-21.432-.013-42.864A1.82,1.82,0,0,1,10.166,2504.747Z" transform="translate(-6.301 -2504.747)"/><path class="a" d="M96.384,2730.409v-22.766h14.132v22.766Zm5.651-17.142c0-.471.013-.942,0-1.412a1.408,1.408,0,1,0-2.815-.009q-.03,1.412,0,2.825a1.408,1.408,0,1,0,2.815.008C102.049,2714.209,102.035,2713.738,102.035,2713.267Z" transform="translate(-85.076 -2682.174)"/><path class="a" d="M96.647,2572.461h5.6v5.594h-5.6Z" transform="translate(-85.306 -2563.961)"/><path class="a" d="M164.1,2578.087v-5.593h5.595v5.593Z" transform="translate(-144.288 -2563.99)"/><path class="a" d="M102.275,2640.1v5.594H96.681V2640.1Z" transform="translate(-85.336 -2623.11)"/><path class="a" d="M164.093,2645.634v-5.593h5.594v5.593Z" transform="translate(-144.285 -2623.058)"/></svg>