<svg xmlns="http://www.w3.org/2000/svg" width="45.655" height="48.895" viewBox="0 0 45.655 48.895"><defs><style>.a{fill:#fff;}</style></defs><g transform="translate(0)"><path class="a" d="M1758.587,2553.642a6.275,6.275,0,0,1-2.46-1.075,5.194,5.194,0,0,1-2.107-4.482c.162-3.226.391-6.448.594-9.672.048-.762.1-1.524.149-2.286a1.448,1.448,0,0,1,1.57-1.488c.475,0,.951,0,1.49,0v-.532c0-1.321,0-2.642,0-3.963a1.464,1.464,0,0,1,1.243-1.613q9.785-2.444,19.572-4.875c.452-.112.593-.285.589-.755-.026-2.578-.013-5.157-.013-7.735v-.549h-3.247v.521c0,1.592,0,3.184,0,4.775a1.44,1.44,0,0,1-1.554,1.547q-15.16,0-30.32,0a1.438,1.438,0,0,1-1.547-1.553c-.005-1.75,0-3.5,0-5.285H1739.3c0,.786.014,1.576,0,2.365a1.369,1.369,0,0,1-.884,1.3,1.239,1.239,0,0,1-1.491-.284,1.79,1.79,0,0,1-.462-1.046c-.041-2.275-.028-4.552-.018-6.828a1.43,1.43,0,1,1,2.859.023c.009.505,0,1.011,0,1.541h3.247v-.5q0-2.411,0-4.823a1.458,1.458,0,0,1,1.618-1.625q15.089,0,30.177,0a1.459,1.459,0,0,1,1.628,1.617c0,1.764,0,3.528,0,5.331.182.008.335.022.488.022,1.321,0,2.642,0,3.963,0a1.467,1.467,0,0,1,1.66,1.633q0,5.514,0,11.03a1.472,1.472,0,0,1-1.3,1.668q-9.734,2.438-19.474,4.856c-.5.123-.661.3-.635.813.047.95.014,1.9.014,2.918.517,0,1,0,1.491,0a1.45,1.45,0,0,1,1.569,1.489q.367,5.835.74,11.672a5.352,5.352,0,0,1-4.4,5.764.726.726,0,0,0-.166.078Z" transform="translate(-1736.425 -2504.747)"/></g></svg>