<svg xmlns="http://www.w3.org/2000/svg" width="47.891" height="47.977" viewBox="0 0 47.891 47.977"><defs><style>.a{fill:#fff;}</style></defs><path class="a" d="M1168.879,2853.248c.29-.32.57-.649.871-.958q1.875-1.924,3.76-3.837c.1-.1.2-.191.319-.306.082.068.156.119.218.182q2.328,2.329,4.653,4.663a2.007,2.007,0,0,1,.186.256Z" transform="translate(-1133.06 -2805.271)"/><g transform="translate(0 0)"><path class="a" d="M1149.422,2504.747a2.618,2.618,0,0,1-.22.289q-5.088,5.1-10.181,10.2c-.075.075-.158.143-.2.181l-3.61-3.617,6.916-7.056Z" transform="translate(-1103.596 -2504.747)"/><path class="a" d="M882,2521.258a2.6,2.6,0,0,1,.288.22q5.094,5.1,10.185,10.2c.075.075.143.158.181.2l-3.611,3.616-7.043-6.93Z" transform="translate(-882 -2519.197)"/><path class="a" d="M898.479,2814.182a2.756,2.756,0,0,1,.222-.288q5.089-5.1,10.182-10.2c.075-.075.157-.144.2-.183l3.609,3.62-6.919,7.054Z" transform="translate(-896.422 -2766.205)"/><path class="a" d="M882,2702.127a2.521,2.521,0,0,1,.29.217q5.08,5.041,10.156,10.086c.086.085.162.18.214.238l-3.608,3.614L882,2709.342Z" transform="translate(-882 -2677.483)"/><path class="a" d="M969.5,2504.747a2.6,2.6,0,0,1-.216.291q-5.014,5.072-10.032,10.14c-.1.1-.2.185-.269.248l-3.609-3.614,6.925-7.064Z" transform="translate(-946.21 -2504.747)"/><path class="a" d="M1079,2814.147a1.99,1.99,0,0,1,.186-.256q5.064-5.123,10.132-10.241c.074-.075.156-.141.2-.182l3.611,3.615-6.929,7.064Z" transform="translate(-1054.399 -2766.17)"/><path class="a" d="M882,2792.186a.96.96,0,0,1,.19.116q2.384,2.34,4.764,4.685a2.085,2.085,0,0,1,.132.163c-.062.076-.114.15-.176.213q-2.325,2.333-4.655,4.663a2.012,2.012,0,0,1-.255.186Z" transform="translate(-882 -2756.297)"/><path class="a" d="M908.486,2504.747c-.234.265-.458.539-.7.792q-1.941,1.99-3.89,3.972c-.107.11-.194.24-.3.378-.131-.109-.205-.161-.268-.224q-2.328-2.33-4.653-4.663a2.081,2.081,0,0,1-.188-.255Z" transform="translate(-896.422 -2504.747)"/><path class="a" d="M882,2612.068a.965.965,0,0,1,.19.116q2.382,2.337,4.759,4.68c.043.042.078.093.05.059l-3.536,3.777L882,2619.283Z" transform="translate(-882 -2598.668)"/><path class="a" d="M989.111,2854.813c.311-.342.6-.7.936-1.022,1.365-1.316,2.743-2.619,4.041-3.855l3.648,3.408-1.423,1.469Z" transform="translate(-975.737 -2806.836)"/><path class="a" d="M1097.983,2504.747c-.332.364-.646.748-1,1.089-1.343,1.294-2.7,2.574-3.984,3.8l-3.635-3.416,1.418-1.469Z" transform="translate(-1063.473 -2504.747)"/><path class="a" d="M1012.826,2768.338l-3.579,3.312-9.212-8.96,3.577-3.583Z" transform="translate(-985.297 -2727.347)"/><path class="a" d="M1048.819,2534.239l9.2,8.955-3.6,3.558-9.193-9.21Z" transform="translate(-1024.851 -2530.557)"/><path class="a" d="M1009.891,2591.531l-9.071-9.09,3.474-3.487,9.09,9.108Z" transform="translate(-985.984 -2569.689)"/><path class="a" d="M914.443,2636.653l-3.448-3.442,9.143-9.161,3.435,3.455Z" transform="translate(-907.375 -2609.155)"/><path class="a" d="M1103.42,2627.607l-9.087,9.081-3.478-3.482,9.087-9.1Z" transform="translate(-1064.777 -2609.198)"/><path class="a" d="M965.194,2668.571l3.472,3.488-9.118,9.136-3.456-3.5Z" transform="translate(-946.84 -2648.116)"/><path class="a" d="M1139.091,2681.481l-3.455-3.456,9.119-9.137,3.426,3.479Z" transform="translate(-1103.968 -2648.395)"/><path class="a" d="M1045.894,2717.3l3.463-3.468,9.1,9.12-3.458,3.473Z" transform="translate(-1025.431 -2687.725)"/></g><path class="a" d="M1191.3,2772.073l-10.587-10.607,3.646-3.687c.58.626,1.183,1.318,1.83,1.967q2.376,2.386,4.787,4.737a.975.975,0,0,1,.332.769C1191.29,2767.512,1191.3,2769.773,1191.3,2772.073Z" transform="translate(-1143.414 -2726.186)"/><path class="a" d="M1191.742,2592.036l-10.386-10.689,3.579-3.536c.552.6,1.145,1.276,1.78,1.913q2.409,2.417,4.852,4.8a.927.927,0,0,1,.3.735c-.011,2.23-.006,4.46-.006,6.69Z" transform="translate(-1143.979 -2568.688)"/><path class="a" d="M1230.97,2532.281l-4.763-5.048,4.869-4.877v9.826Z" transform="translate(-1183.23 -2520.158)"/><path class="a" d="M1226.7,2715.832l3.4-3.662c.506.523.94.962,1.36,1.414a.477.477,0,0,1,.082.3q0,3.418,0,6.836c0,.025-.024.05-.08.162Z" transform="translate(-1183.662 -2686.272)"/></svg>