<svg xmlns="http://www.w3.org/2000/svg" width="35.381" height="28.349" viewBox="0 0 35.381 28.349"><defs><style>.a{fill:#4a2e18;}</style></defs><g transform="translate(430 -3045.477)"><path class="a" d="M-81,3173.323a1.26,1.26,0,0,1,1.358-.767c.539.034,1.082.006,1.624.007a1.073,1.073,0,0,1,1.233,1.218q0,1.953,0,3.905v.4h2.048v4.844h-2.048v.857q0,1.746,0,3.49a1.061,1.061,0,0,1-1.2,1.184c-.541,0-1.085-.028-1.624.008A1.282,1.282,0,0,1-81,3187.7Z" transform="translate(-349 -127.074)"/><path class="a" d="M-66.419,3199.052a5.207,5.207,0,0,1-3.194-1.4,5.032,5.032,0,0,1-1.638-3.716c-.018-1.509-.012-3.019,0-4.527a2.747,2.747,0,0,1,2.782-2.786c2.268-.011,4.537,0,6.806,0a1.044,1.044,0,0,1,1.12,1.123,3.466,3.466,0,0,1-3.676,3.713c-.484,0-.967,0-1.451,0a1.038,1.038,0,0,0-1.09,1.083c-.006.414,0,.829,0,1.243a1.05,1.05,0,0,0,1.012,1.127,1.063,1.063,0,0,0,1.059-1.088c0-.08,0-.161,0-.293.3,0,.6-.01.892,0a5.1,5.1,0,0,0,3.212-.844,5.079,5.079,0,0,0,1.524-1.67.528.528,0,0,1,.345-.245,4.979,4.979,0,0,0,1.944-.553.459.459,0,0,1,.367-.018,4.391,4.391,0,0,0,4.358-.021.912.912,0,0,1,.142-.041v.379q0,1.606,0,3.213a5.188,5.188,0,0,1-3.956,5.178l-.19.053v.379c0,1.14,0,2.281,0,3.421a1.04,1.04,0,0,1-1.11,1.132q-4.078.006-8.154,0a1.035,1.035,0,0,1-1.1-1.109C-66.422,3201.551-66.419,3200.319-66.419,3199.052Z" transform="translate(-351.074 -130.069)"/><path class="a" d="M-65.713,3178.107a2.393,2.393,0,0,1,2.267-2.029,2.4,2.4,0,0,1,2.39,1.94,2.338,2.338,0,0,1,2.721-1.9,2.29,2.29,0,0,1,1.952,2,2.483,2.483,0,0,1,.765-1.431,2.231,2.231,0,0,1,2.444-.431,2.142,2.142,0,0,1,1.439,2.017c.041,1.992.034,3.985,0,5.977a2.3,2.3,0,0,1-2.078,2.182,2.345,2.345,0,0,1-2.47-1.641c-.033-.11-.059-.221-.1-.383a2.413,2.413,0,0,1-1.879,1.99,14.644,14.644,0,0,0-.088-1.551,3.031,3.031,0,0,0-2.936-2.544c-2.418-.023-4.837-.029-7.254.01a10.842,10.842,0,0,0-1.837.347v-1.29c0-.945,0-1.889,0-2.833a2.35,2.35,0,0,1,2.06-2.451,2.351,2.351,0,0,1,2.563,1.874C-65.744,3178-65.734,3178.027-65.713,3178.107Z" transform="translate(-351.263 -127.823)"/><path class="a" d="M-41.958,3182.923h-2.056v-4.817h2.056v-.4q0-1.987,0-3.973a1.051,1.051,0,0,1,1.149-1.163q.967,0,1.934,0a1.04,1.04,0,0,1,1.129,1.112q0,6.841,0,13.681a1.037,1.037,0,0,1-1.107,1.1q-1,.008-2,0a1.038,1.038,0,0,1-1.1-1.106c0-1.336,0-2.671,0-4.008Z" transform="translate(-356.878 -127.077)"/></g></svg>