<svg version="1.2" baseProfile="tiny-ps" xmlns="http://www.w3.org/2000/svg" viewBox="0 0 628 287" width="628" height="287">
	<title>ranbowsvg22-svg</title>
	<style>
		tspan { white-space:pre }
		.shp0 { opacity: 0.42;fill: none;stroke: #ffffff } 
		.shp1 { opacity: 0.212;fill: none;stroke: #ffffff;stroke-width: 4 } 
		.shp2 { fill: #357cae } 
		.shp3 { opacity: 0.18;fill: none;stroke: #ffffff } 
		.shp4 { fill: #ffffff } 
		.shp5 { fill: #3a3a3a } 
		.shp6 { fill: #4a2e18 } 
		.shp7 { fill: none;stroke: #ffffff;stroke-linecap:round;stroke-linejoin:round } 
		.shp8 { fill: none;stroke: #ffffff;stroke-linecap:round;stroke-linejoin:round;stroke-width: 2 } 
	</style>
	<g id="Layer">
		<path id="Layer" class="shp0" d="M588.14 233.98C537.55 131.66 433.87 61.5 314.17 61.5C194.47 61.5 90.79 131.66 40.19 233.98" />
		<g id="Layer">
		</g>
		<path id="Layer" class="shp1" d="M580.84 233.98C531.6 135.39 430.68 67.81 314.17 67.81C197.66 67.81 96.75 135.4 47.5 233.98" />
		<g id="Layer">
			<g id="Layer">
				<path id="Layer" class="shp2" d="M104 190C85.2 190 70 174.8 70 156C70 137.2 85.2 122 104 122C122.8 122 138 137.2 138 156C138 174.8 122.8 190 104 190Z" />
				<path id="Layer" class="shp3" d="M104 189.5C85.47 189.5 70.5 174.53 70.5 156C70.5 137.47 85.47 122.5 104 122.5C122.53 122.5 137.5 137.47 137.5 156C137.5 174.53 122.53 189.5 104 189.5Z" />
			</g>
		</g>
		<g id="Layer">
			<g id="Layer">
				<path id="Layer" class="shp2" d="M524 190C505.2 190 490 174.8 490 156C490 137.2 505.2 122 524 122C542.8 122 558 137.2 558 156C558 174.8 542.8 190 524 190Z" />
				<path id="Layer" class="shp3" d="M524 189.5C505.47 189.5 490.5 174.53 490.5 156C490.5 137.47 505.47 122.5 524 122.5C542.53 122.5 557.5 137.47 557.5 156C557.5 174.53 542.53 189.5 524 189.5Z" />
			</g>
		</g>
		<g id="Layer">
			<g id="Layer">
				<path id="Layer" class="shp2" d="M191 125C172.2 125 157 109.8 157 91C157 72.2 172.2 57 191 57C209.8 57 225 72.2 225 91C225 109.8 209.8 125 191 125Z" />
				<path id="Layer" class="shp3" d="M191 124.5C172.47 124.5 157.5 109.53 157.5 91C157.5 72.47 172.47 57.5 191 57.5C209.53 57.5 224.5 72.47 224.5 91C224.5 109.53 209.53 124.5 191 124.5Z" />
			</g>
		</g>
		<g id="Layer">
			<g id="Layer">
				<path id="Layer" class="shp2" d="M437 125C418.2 125 403 109.8 403 91C403 72.2 418.2 57 437 57C455.8 57 471 72.2 471 91C471 109.8 455.8 125 437 125Z" />
				<path id="Layer" class="shp3" d="M437 124.5C418.47 124.5 403.5 109.53 403.5 91C403.5 72.47 418.47 57.5 437 57.5C455.53 57.5 470.5 72.47 470.5 91C470.5 109.53 455.53 124.5 437 124.5Z" />
			</g>
		</g>
		<path id="Layer" class="shp4" d="M104 186C87.41 186 74 172.59 74 156C74 139.41 87.41 126 104 126C120.59 126 134 139.41 134 156C134 172.59 120.59 186 104 186Z" />
		<path id="Layer" class="shp4" d="M524 186C507.41 186 494 172.59 494 156C494 139.41 507.41 126 524 126C540.59 126 554 139.41 554 156C554 172.59 540.59 186 524 186Z" />
		<path id="Layer" class="shp4" d="M437 121C420.41 121 407 107.59 407 91C407 74.41 420.41 61 437 61C453.59 61 467 74.41 467 91C467 107.59 453.59 121 437 121Z" />
		<path id="Layer" class="shp4" d="M191 121C174.41 121 161 107.59 161 91C161 74.41 174.41 61 191 61C207.59 61 221 74.41 221 91C221 107.59 207.59 121 191 121Z" />
		<g id="Layer">
			<g id="Layer">
				<path id="Layer" class="shp2" d="M43 275C24.2 275 9 259.8 9 241C9 222.2 24.2 207 43 207C61.8 207 77 222.2 77 241C77 259.8 61.8 275 43 275Z" />
				<path id="Layer" class="shp3" d="M43 274.5C24.47 274.5 9.5 259.53 9.5 241C9.5 222.47 24.47 207.5 43 207.5C61.53 207.5 76.5 222.47 76.5 241C76.5 259.53 61.53 274.5 43 274.5Z" />
			</g>
		</g>
		<g id="Layer">
			<g id="Layer">
				<path id="Layer" class="shp2" d="M585 275C566.2 275 551 259.8 551 241C551 222.2 566.2 207 585 207C603.8 207 619 222.2 619 241C619 259.8 603.8 275 585 275Z" />
				<path id="Layer" class="shp3" d="M585 274.5C566.47 274.5 551.5 259.53 551.5 241C551.5 222.47 566.47 207.5 585 207.5C603.53 207.5 618.5 222.47 618.5 241C618.5 259.53 603.53 274.5 585 274.5Z" />
			</g>
		</g>
		<path id="Layer" class="shp4" d="M43 271C26.41 271 13 257.59 13 241C13 224.41 26.41 211 43 211C59.59 211 73 224.41 73 241C73 257.59 59.59 271 43 271Z" />
		<path id="Layer" class="shp4" d="M585 271C568.41 271 555 257.59 555 241C555 224.41 568.41 211 585 211C601.59 211 615 224.41 615 241C615 257.59 601.59 271 585 271Z" />
		<g id="Layer">
			<path id="Layer" fill-rule="evenodd" class="shp5" d="M192.16 74.58C192.25 75.25 192.32 75.93 192.43 76.61C192.53 77.31 192.54 77.31 193.23 77.45C193.6 77.53 193.96 77.62 194.31 77.73C194.67 77.84 195.02 77.96 195.36 78.11C195.7 78.26 196.04 78.42 196.36 78.6C196.69 78.78 197.01 78.97 197.31 79.18C197.37 79.24 197.43 79.28 197.51 79.31C197.58 79.34 197.66 79.35 197.74 79.35C197.81 79.35 197.89 79.33 197.96 79.3C198.03 79.27 198.1 79.22 198.15 79.17C198.75 78.72 199.34 78.28 199.91 77.85L201.52 79.44L200.23 81.16C199.93 81.56 199.93 81.69 200.21 82.09C200.42 82.41 200.62 82.73 200.81 83.07C200.99 83.41 201.15 83.75 201.3 84.11C201.45 84.46 201.58 84.82 201.69 85.19C201.8 85.56 201.89 85.93 201.96 86.31C202.04 86.74 202.16 86.85 202.6 86.91C203.33 87.01 204.05 87.11 204.79 87.22L204.79 89.47L203.31 89.69C203.03 89.73 202.76 89.77 202.48 89.81C202.42 89.81 202.35 89.82 202.3 89.85C202.24 89.87 202.18 89.91 202.14 89.95C202.09 89.99 202.05 90.05 202.03 90.1C202 90.16 201.98 90.22 201.97 90.28C201.9 90.68 201.82 91.07 201.71 91.45C201.6 91.84 201.46 92.22 201.31 92.59C201.16 92.96 200.99 93.32 200.8 93.67C200.61 94.02 200.4 94.36 200.17 94.69C200.12 94.75 200.09 94.81 200.06 94.87C200.04 94.94 200.03 95.01 200.03 95.08C200.03 95.15 200.05 95.22 200.08 95.29C200.1 95.35 200.14 95.41 200.19 95.46C200.64 96.06 201.09 96.66 201.54 97.25L199.94 98.85C199.46 98.49 198.95 98.11 198.44 97.72C198.43 97.71 198.41 97.69 198.4 97.67C198.39 97.66 198.38 97.64 198.37 97.62C198.36 97.6 198.35 97.58 198.35 97.56C198.34 97.54 198.33 97.52 198.33 97.5C198.13 96.72 197.93 95.93 197.72 95.15C197.7 95.04 197.66 94.94 197.58 94.86C197.51 94.78 197.41 94.73 197.31 94.7C197.2 94.68 197.09 94.68 196.99 94.72C196.89 94.76 196.8 94.83 196.74 94.92C196.34 95.35 195.95 95.8 195.55 96.23C195.49 96.31 195.41 96.39 195.33 96.45C195.24 96.52 195.15 96.58 195.06 96.62C194.96 96.67 194.86 96.7 194.76 96.73C194.65 96.75 194.55 96.76 194.44 96.76C194.36 96.77 194.27 96.76 194.19 96.74C194.11 96.71 194.03 96.68 193.95 96.64C193.88 96.59 193.81 96.54 193.76 96.48C193.7 96.42 193.65 96.35 193.61 96.27C193.46 95.98 193.5 95.9 193.8 95.78C194.41 95.56 194.99 95.26 195.53 94.89C196.07 94.52 196.56 94.08 196.99 93.59C197.42 93.1 197.79 92.56 198.09 91.97C198.38 91.39 198.61 90.77 198.75 90.14C199 89.06 199.03 87.95 198.82 86.87C198.62 85.78 198.19 84.76 197.57 83.85C196.95 82.94 196.14 82.17 195.21 81.59C194.27 81.01 193.22 80.63 192.13 80.48C191.1 80.33 190.05 80.38 189.03 80.64C188.02 80.89 187.07 81.35 186.23 81.97C185.4 82.6 184.69 83.38 184.16 84.28C183.63 85.18 183.28 86.17 183.13 87.2C183.04 87.8 183.01 88.41 183.06 89.01C183.11 89.61 183.23 90.21 183.41 90.78C183.6 91.36 183.85 91.91 184.16 92.43C184.48 92.94 184.85 93.42 185.28 93.85C185.29 93.87 185.3 93.88 185.32 93.89C185.33 93.9 185.35 93.91 185.36 93.93C185.38 93.94 185.39 93.95 185.4 93.96C185.42 93.97 185.44 93.98 185.45 93.99C185.03 94.76 184.63 95.47 184.26 96.2C184.22 96.27 184.18 96.35 184.15 96.43C184.11 96.51 184.08 96.59 184.05 96.67C184.02 96.75 183.99 96.84 183.97 96.92C183.94 97 183.92 97.09 183.9 97.17C183.88 97.25 183.86 97.32 183.83 97.39C183.79 97.46 183.76 97.52 183.71 97.58C183.67 97.65 183.61 97.7 183.56 97.75C183.5 97.81 183.44 97.85 183.38 97.89C182.94 98.2 182.51 98.54 182.1 98.84L180.5 97.24L181.78 95.54C182.08 95.14 182.08 95.01 181.8 94.61C181.58 94.29 181.38 93.97 181.2 93.63C181.01 93.29 180.85 92.94 180.7 92.58C180.55 92.22 180.42 91.86 180.31 91.49C180.21 91.12 180.12 90.74 180.05 90.36C179.97 89.97 179.87 89.86 179.46 89.81C178.81 89.71 178.16 89.62 177.51 89.52C177.42 89.51 177.32 89.49 177.22 89.47L177.22 87.23L178.87 86.98C179.1 86.94 179.33 86.91 179.56 86.87C179.62 86.87 179.68 86.85 179.73 86.83C179.79 86.8 179.84 86.76 179.88 86.72C179.92 86.68 179.96 86.63 179.98 86.57C180.01 86.52 180.03 86.46 180.03 86.4C180.1 86.01 180.19 85.62 180.3 85.23C180.42 84.85 180.55 84.47 180.7 84.1C180.85 83.73 181.03 83.37 181.22 83.02C181.41 82.67 181.62 82.33 181.86 82C181.9 81.95 181.94 81.89 181.97 81.82C181.99 81.76 182 81.69 182 81.61C182 81.54 181.98 81.47 181.96 81.41C181.93 81.34 181.88 81.29 181.83 81.24C181.38 80.64 180.93 80.04 180.5 79.46L182.1 77.85C182.67 78.28 183.28 78.74 183.89 79.2C183.94 79.25 184 79.29 184.06 79.32C184.13 79.35 184.2 79.36 184.27 79.36C184.34 79.37 184.41 79.36 184.47 79.33C184.54 79.31 184.6 79.27 184.66 79.22C184.98 79 185.31 78.79 185.65 78.6C186 78.41 186.35 78.24 186.71 78.09C187.07 77.94 187.44 77.81 187.81 77.7C188.19 77.59 188.57 77.49 188.96 77.42C189.41 77.33 189.51 77.22 189.57 76.75C189.66 76.03 189.76 75.3 189.85 74.57L192.16 74.58ZM180.91 88.09C180.91 88.15 180.91 88.22 180.91 88.29C180.91 88.36 180.91 88.43 180.94 88.5C180.96 88.57 181 88.63 181.05 88.69C181.09 88.74 181.15 88.79 181.22 88.82C181.28 88.85 181.35 88.87 181.42 88.88C181.5 88.88 181.57 88.86 181.64 88.84C181.7 88.81 181.77 88.77 181.82 88.72C181.87 88.66 181.91 88.6 181.94 88.54C181.96 88.47 181.98 88.4 181.98 88.32C181.98 88.24 181.98 88.15 181.99 88.06C182 87.89 182.02 87.72 182.03 87.55C182.05 87.38 182.08 87.21 182.1 87.05C182.13 86.88 182.15 86.71 182.18 86.54C182.22 86.37 182.25 86.2 182.29 86.04C182.48 85.26 182.78 84.52 183.18 83.83C183.57 83.13 184.06 82.5 184.63 81.93C185.19 81.37 185.83 80.89 186.53 80.5C187.23 80.11 187.97 79.81 188.75 79.62C188.79 79.61 188.84 79.59 188.88 79.58C188.92 79.56 188.97 79.54 189.01 79.51C189.05 79.49 189.08 79.46 189.12 79.43C189.16 79.4 189.19 79.37 189.22 79.33C189.25 79.29 189.28 79.25 189.29 79.2C189.31 79.15 189.32 79.1 189.31 79.05C189.31 79 189.3 78.95 189.28 78.9C189.26 78.85 189.23 78.81 189.2 78.77C189.16 78.72 189.11 78.68 189.06 78.65C189.01 78.61 188.95 78.59 188.89 78.57C188.82 78.56 188.76 78.55 188.7 78.55C188.64 78.56 188.57 78.58 188.52 78.6C187.46 78.86 186.45 79.3 185.53 79.89C184.61 80.47 183.79 81.21 183.11 82.06C182.43 82.91 181.89 83.87 181.52 84.89C181.14 85.92 180.94 87 180.91 88.09L180.91 88.09ZM191.52 78.82C191.53 78.75 191.51 78.68 191.49 78.62C191.46 78.55 191.42 78.5 191.37 78.45C191.33 78.4 191.27 78.36 191.2 78.33C191.14 78.3 191.07 78.29 191 78.29C190.93 78.29 190.86 78.3 190.8 78.33C190.73 78.35 190.68 78.39 190.63 78.44C190.58 78.49 190.54 78.55 190.51 78.62C190.49 78.68 190.47 78.75 190.47 78.82C190.47 78.89 190.49 78.95 190.51 79.01C190.54 79.08 190.58 79.13 190.62 79.18C190.67 79.23 190.73 79.27 190.79 79.29C190.85 79.32 190.92 79.33 190.98 79.33C191.05 79.34 191.12 79.33 191.19 79.3C191.25 79.28 191.31 79.24 191.36 79.19C191.41 79.15 191.45 79.09 191.48 79.03C191.51 78.96 191.52 78.89 191.52 78.82L191.52 78.82Z" />
			<path id="Layer" fill-rule="evenodd" class="shp5" d="M196.9 96.32C197.03 96.64 197.13 96.96 197.21 97.29C197.29 97.62 197.34 97.96 197.36 98.3C197.38 98.64 197.38 98.98 197.34 99.32C197.31 99.66 197.25 99.99 197.16 100.32C197.06 100.67 196.91 101.01 196.74 101.33C196.56 101.65 196.34 101.95 196.1 102.22C195.85 102.49 195.58 102.73 195.28 102.94C194.98 103.15 194.66 103.33 194.32 103.47C193.84 103.7 193.33 103.89 192.81 104.02C192.28 104.15 191.75 104.23 191.21 104.26C190.67 104.29 190.13 104.26 189.59 104.19C189.06 104.11 188.53 103.98 188.02 103.8C187.4 103.6 186.83 103.28 186.33 102.85C185.84 102.43 185.43 101.91 185.14 101.32C184.86 100.74 184.69 100.1 184.65 99.45C184.61 98.8 184.71 98.14 184.92 97.53C185.08 97.06 185.28 96.61 185.5 96.17C185.72 95.73 185.97 95.31 186.25 94.9C186.53 94.5 186.84 94.11 187.17 93.75C187.51 93.39 187.87 93.05 188.25 92.74C188.48 92.52 188.72 92.31 188.95 92.09C189.14 91.9 189.31 91.7 189.46 91.48C189.61 91.26 189.74 91.03 189.84 90.78C189.95 90.54 190.03 90.29 190.08 90.03C190.14 89.77 190.17 89.5 190.17 89.24C190.19 88.86 190.17 88.49 190.17 88.09C190.25 88.12 190.28 88.12 190.3 88.14C191.05 88.9 191.82 89.65 192.55 90.44C192.62 90.52 192.69 90.6 192.75 90.68C192.82 90.76 192.88 90.85 192.94 90.94C193 91.03 193.05 91.11 193.11 91.21C193.16 91.3 193.21 91.39 193.26 91.49C193.38 91.69 193.47 91.91 193.53 92.14C193.58 92.37 193.61 92.61 193.59 92.85C193.58 93.08 193.54 93.32 193.46 93.54C193.39 93.77 193.28 93.98 193.14 94.17C193.1 94.24 193.06 94.31 193.01 94.38C192.97 94.45 192.93 94.52 192.89 94.59C192.85 94.67 192.81 94.74 192.78 94.81C192.74 94.89 192.71 94.96 192.67 95.03C192.58 95.2 192.52 95.39 192.48 95.57C192.45 95.76 192.45 95.96 192.47 96.15C192.5 96.34 192.55 96.52 192.63 96.69C192.71 96.87 192.82 97.03 192.95 97.17C193.09 97.31 193.24 97.44 193.41 97.54C193.59 97.65 193.77 97.72 193.96 97.77C194.16 97.82 194.36 97.84 194.55 97.83C194.75 97.82 194.95 97.78 195.14 97.72C195.26 97.68 195.38 97.63 195.5 97.58C195.61 97.53 195.72 97.46 195.83 97.39C195.94 97.32 196.04 97.24 196.14 97.16C196.23 97.07 196.32 96.98 196.4 96.88L196.9 96.32ZM185.67 99.14C185.72 99.43 185.74 99.75 185.81 100.06C185.86 100.3 185.94 100.53 186.04 100.75C186.14 100.97 186.26 101.18 186.4 101.37C186.54 101.57 186.7 101.75 186.87 101.92C187.05 102.08 187.24 102.23 187.45 102.35C187.7 102.5 187.96 102.63 188.23 102.74C188.49 102.85 188.77 102.94 189.05 103.01C189.33 103.08 189.62 103.13 189.91 103.15C190.2 103.18 190.49 103.19 190.77 103.17C190.84 103.17 190.9 103.15 190.96 103.12C191.01 103.09 191.06 103.05 191.11 103C191.15 102.96 191.18 102.9 191.2 102.84C191.22 102.78 191.23 102.72 191.23 102.65C191.23 102.59 191.22 102.53 191.19 102.47C191.17 102.41 191.14 102.36 191.1 102.31C191.06 102.26 191.01 102.23 190.95 102.2C190.89 102.17 190.83 102.15 190.77 102.14C190.67 102.12 190.56 102.13 190.45 102.11C190.34 102.11 190.22 102.09 190.11 102.08C190 102.07 189.88 102.05 189.77 102.04C189.65 102.02 189.54 102 189.42 101.98C189.31 101.96 189.2 101.94 189.08 101.91C188.8 101.87 188.52 101.78 188.26 101.64C188 101.51 187.77 101.34 187.56 101.13C187.36 100.92 187.19 100.68 187.06 100.42C186.93 100.16 186.84 99.88 186.8 99.6C186.79 99.5 186.79 99.4 186.79 99.31C186.78 99.21 186.78 99.12 186.79 99.02C186.79 98.93 186.8 98.83 186.8 98.73C186.81 98.64 186.82 98.54 186.84 98.45C186.86 98.38 186.86 98.31 186.85 98.23C186.83 98.16 186.81 98.1 186.77 98.03C186.73 97.97 186.68 97.92 186.62 97.88C186.56 97.84 186.49 97.81 186.42 97.8C186.35 97.79 186.27 97.79 186.2 97.8C186.13 97.82 186.06 97.85 186 97.89C185.95 97.93 185.9 97.99 185.86 98.05C185.82 98.11 185.8 98.18 185.79 98.26C185.74 98.54 185.71 98.83 185.67 99.14L185.67 99.14Z" />
		</g>
		<g id="Layer">
			<path id="Layer" fill-rule="evenodd" class="shp5" d="M88.19 145.94L88.19 145.82L88.7 144.15L92.2 144.97C92.27 144.81 92.35 144.67 92.44 144.53C92.54 144.4 92.64 144.27 92.76 144.16C92.88 144.04 93.01 143.94 93.15 143.85C93.28 143.76 93.43 143.68 93.58 143.62C93.68 143.59 93.76 143.56 93.84 143.51C93.93 143.46 94 143.4 94.06 143.33C94.13 143.26 94.18 143.18 94.23 143.09C94.27 143.01 94.31 142.92 94.33 142.83C94.34 142.78 94.36 142.73 94.37 142.69C94.39 142.64 94.41 142.6 94.42 142.55C94.44 142.51 94.46 142.46 94.48 142.42C94.5 142.37 94.52 142.33 94.54 142.28C94.69 141.91 94.83 141.54 94.99 141.16L96.7 141.84C96.46 142.46 96.23 143.04 96.01 143.61C96.03 143.64 96.03 143.65 96.04 143.66C96.1 143.7 96.15 143.74 96.21 143.78C96.37 143.88 96.51 143.99 96.65 144.11C96.78 144.24 96.9 144.38 97.01 144.53C97.11 144.68 97.2 144.84 97.27 145C97.34 145.17 97.4 145.35 97.44 145.53C97.48 145.73 97.57 145.77 97.74 145.78C98.89 145.87 100.04 145.97 101.18 146.05C101.21 146.05 101.24 146.04 101.27 146.03C101.29 146.02 101.32 146.01 101.35 146C101.37 145.98 101.39 145.96 101.42 145.94C101.44 145.92 101.45 145.9 101.47 145.87C101.54 145.73 101.62 145.59 101.72 145.46C101.81 145.33 101.91 145.21 102.03 145.1C102.14 144.99 102.26 144.88 102.39 144.79C102.52 144.7 102.66 144.61 102.8 144.54C102.82 144.53 102.85 144.51 102.87 144.49C102.89 144.48 102.92 144.46 102.93 144.43C102.95 144.41 102.97 144.39 102.99 144.36C103 144.34 103.02 144.31 103.03 144.29C103.41 143.32 103.78 142.35 104.15 141.39C104.18 141.31 104.22 141.25 104.27 141.16L105.96 141.84L104.93 144.44C105.11 144.5 105.28 144.59 105.44 144.69C105.6 144.79 105.75 144.9 105.89 145.03C106.02 145.16 106.15 145.3 106.26 145.45C106.37 145.61 106.46 145.77 106.54 145.94C106.55 145.96 106.57 145.98 106.58 145.99C106.6 146 106.61 146.02 106.63 146.02C106.65 146.03 106.67 146.04 106.69 146.05C106.71 146.05 106.73 146.05 106.75 146.06C107.94 145.97 109.13 145.87 110.32 145.76C110.34 145.76 110.37 145.75 110.39 145.73C110.41 145.72 110.43 145.71 110.45 145.69C110.46 145.67 110.48 145.66 110.49 145.64C110.51 145.62 110.52 145.59 110.53 145.57C110.58 145.33 110.66 145.09 110.77 144.87C110.89 144.65 111.03 144.45 111.19 144.26C111.36 144.08 111.55 143.92 111.76 143.79C111.97 143.65 112.19 143.55 112.43 143.47C112.46 143.46 112.48 143.44 112.51 143.43C112.53 143.41 112.56 143.39 112.58 143.37C112.6 143.34 112.62 143.32 112.64 143.3C112.66 143.27 112.68 143.24 112.69 143.21C112.93 142.64 113.15 142.05 113.39 141.47C113.43 141.37 113.48 141.27 113.53 141.16L115.23 141.84C114.99 142.45 114.76 143.04 114.52 143.65C114.65 143.72 114.77 143.79 114.88 143.88C115 143.96 115.11 144.06 115.21 144.16C115.31 144.26 115.4 144.37 115.49 144.48C115.58 144.59 115.66 144.71 115.73 144.84C115.75 144.89 115.88 144.92 115.95 144.9C116.34 144.84 116.72 144.76 117.1 144.67C117.83 144.5 118.55 144.32 119.3 144.14C119.47 144.73 119.63 145.31 119.8 145.94C118.59 146.21 117.41 146.48 116.23 146.74C116.19 146.75 116.14 146.76 116.11 146.77C116.07 146.79 116.03 146.81 116 146.84C115.97 146.87 115.94 146.9 115.92 146.93C115.9 146.97 115.88 147.01 115.87 147.05C115.79 147.28 115.68 147.5 115.55 147.7C115.41 147.9 115.25 148.08 115.07 148.24C114.89 148.4 114.68 148.53 114.46 148.63C114.24 148.74 114.01 148.81 113.78 148.86C113.7 148.87 113.63 148.9 113.54 148.93C113.55 149.22 113.58 149.5 113.61 149.79C113.65 150.07 113.69 150.35 113.75 150.63C113.81 150.91 113.87 151.19 113.95 151.47C114.02 151.74 114.11 152.02 114.21 152.29C114.22 152.34 114.24 152.39 114.27 152.44C114.3 152.48 114.34 152.52 114.38 152.56C114.42 152.59 114.47 152.62 114.52 152.64C114.57 152.66 114.62 152.67 114.68 152.67C114.84 152.69 115.01 152.73 115.17 152.79C115.32 152.84 115.48 152.91 115.62 153C115.76 153.09 115.9 153.19 116.02 153.3C116.14 153.42 116.25 153.54 116.35 153.68C116.38 153.75 116.43 153.8 116.48 153.85C116.54 153.9 116.6 153.94 116.67 153.96C116.74 153.98 116.81 153.99 116.89 153.99C116.96 153.99 117.03 153.97 117.1 153.94C117.82 153.74 118.55 153.58 119.3 153.41C119.47 154 119.63 154.57 119.8 155.19C118.9 155.4 118.03 155.62 117.16 155.81C117.13 155.82 117.09 155.83 117.06 155.85C117.03 155.86 117 155.88 116.97 155.91C116.94 155.93 116.92 155.96 116.9 155.99C116.88 156.02 116.87 156.06 116.86 156.09C116.82 156.19 116.78 156.29 116.74 156.38C116.7 156.48 116.65 156.57 116.6 156.66C116.55 156.75 116.5 156.84 116.45 156.93C116.39 157.02 116.33 157.11 116.27 157.19C116.22 157.24 116.18 157.3 116.15 157.36C116.12 157.42 116.09 157.48 116.07 157.55C116.05 157.62 116.04 157.69 116.04 157.75C116.03 157.82 116.04 157.89 116.05 157.96C116.09 158.28 116.12 158.6 116.14 158.92C116.15 159.24 116.15 159.56 116.14 159.88C116.13 160.21 116.11 160.53 116.08 160.85C116.04 161.16 115.99 161.48 115.93 161.8C115.85 162.21 115.84 162.53 116.22 162.77C116.24 162.78 116.25 162.8 116.26 162.81C116.28 162.82 116.29 162.83 116.3 162.85C116.31 162.86 116.32 162.88 116.33 162.89C116.34 162.91 116.35 162.92 116.36 162.94C116.51 163.31 116.77 163.29 117.11 163.2C117.83 163 118.56 162.85 119.31 162.67C119.47 163.26 119.63 163.84 119.81 164.45C118.91 164.67 118.04 164.88 117.17 165.07C117.13 165.08 117.09 165.09 117.06 165.1C117.03 165.12 117 165.14 116.97 165.16C116.94 165.19 116.92 165.22 116.9 165.25C116.88 165.29 116.87 165.32 116.87 165.36C116.78 165.68 116.64 165.98 116.45 166.26C116.26 166.53 116.02 166.76 115.75 166.95C115.47 167.14 115.17 167.27 114.84 167.35C114.52 167.43 114.19 167.45 113.86 167.41C113.82 167.4 113.78 167.4 113.75 167.4C113.71 167.41 113.68 167.42 113.64 167.44C113.61 167.45 113.58 167.48 113.56 167.5C113.53 167.53 113.51 167.56 113.5 167.6C113.1 168.27 112.7 168.94 112.3 169.61C112.22 169.75 112.13 169.88 112.04 170.03L110.46 169.08C110.96 168.24 111.44 167.44 111.92 166.64C112 166.51 112.06 166.41 111.94 166.26C111.82 166.11 111.74 165.99 111.5 166.02C109.98 166.17 108.45 166.3 106.93 166.42C106.88 166.42 106.84 166.43 106.8 166.44C106.76 166.45 106.72 166.47 106.69 166.49C106.65 166.51 106.62 166.54 106.6 166.57C106.57 166.61 106.55 166.64 106.54 166.68C106.46 166.91 106.34 167.11 106.2 167.3C106.05 167.49 105.89 167.66 105.7 167.81C105.51 167.95 105.3 168.06 105.07 168.15C104.85 168.23 104.62 168.29 104.38 168.31C104.28 168.31 104.17 168.33 104.07 168.36C103.97 168.39 103.88 168.44 103.79 168.5C103.7 168.56 103.63 168.63 103.56 168.71C103.49 168.8 103.44 168.89 103.4 168.98C103.06 169.61 102.67 170.22 102.29 170.85L100.71 169.9L102.05 167.65C101.83 167.28 101.61 166.97 101.44 166.63C101.43 166.6 101.41 166.57 101.39 166.54C101.37 166.52 101.34 166.5 101.32 166.48C101.29 166.46 101.25 166.45 101.22 166.44C101.19 166.43 101.15 166.42 101.12 166.43C100.14 166.36 99.17 166.28 98.2 166.22C98.16 166.22 98.13 166.23 98.1 166.23C98.07 166.24 98.04 166.25 98.01 166.27C97.98 166.28 97.95 166.3 97.92 166.31C97.9 166.33 97.87 166.36 97.85 166.38C97.71 166.56 97.54 166.73 97.36 166.87C97.17 167.01 96.97 167.12 96.76 167.21C96.54 167.3 96.32 167.36 96.09 167.4C95.86 167.43 95.63 167.43 95.4 167.41C95.35 167.4 95.3 167.4 95.26 167.4C95.21 167.41 95.17 167.43 95.13 167.45C95.08 167.47 95.05 167.5 95.02 167.53C94.99 167.57 94.96 167.61 94.94 167.65C94.53 168.36 94.1 169.06 93.68 169.77C93.63 169.85 93.57 169.93 93.51 170.02L91.94 169.07C92.38 168.34 92.78 167.63 93.22 166.95C93.43 166.62 93.59 166.32 93.24 165.99C93.23 165.97 93.21 165.95 93.2 165.93C93.19 165.91 93.17 165.89 93.16 165.87C93.15 165.85 93.15 165.83 93.14 165.81C93.13 165.79 93.12 165.76 93.12 165.74C93.07 165.54 92.93 165.48 92.74 165.45C91.84 165.27 90.95 165.09 90.06 164.9C89.44 164.76 88.82 164.61 88.2 164.46L88.2 164.34C88.37 163.78 88.54 163.23 88.72 162.66C88.79 162.68 88.85 162.69 88.92 162.7C90.21 163 91.5 163.29 92.79 163.58C92.93 163.61 93.06 163.68 93.17 163.46C93.27 163.25 93.39 163.05 93.54 162.87C93.68 162.69 93.85 162.53 94.04 162.4C94.23 162.26 94.43 162.15 94.65 162.07C94.86 161.98 95.09 161.93 95.32 161.9C95.47 161.88 95.56 161.83 95.57 161.66C95.63 160.75 95.71 159.84 95.76 158.93C95.76 158.87 95.76 158.81 95.76 158.74C95.75 158.68 95.75 158.62 95.75 158.56C95.74 158.5 95.74 158.43 95.73 158.37C95.72 158.31 95.71 158.25 95.71 158.19C95.42 158.19 95.14 158.14 94.88 158.06C94.61 157.97 94.35 157.85 94.12 157.69C93.89 157.53 93.68 157.34 93.5 157.12C93.32 156.9 93.18 156.66 93.07 156.4C93.05 156.37 93.03 156.35 93.01 156.32C92.98 156.3 92.96 156.28 92.93 156.26C92.9 156.25 92.87 156.23 92.84 156.22C92.81 156.21 92.77 156.2 92.74 156.2C91.91 156.02 91.07 155.87 90.24 155.69C89.56 155.54 88.89 155.36 88.21 155.2L88.21 155.08L88.72 153.41C88.78 153.42 88.82 153.42 88.86 153.43C90.15 153.72 91.44 154.01 92.73 154.31C92.78 154.33 92.83 154.34 92.89 154.34C92.94 154.34 93 154.33 93.04 154.3C93.09 154.28 93.14 154.25 93.17 154.21C93.21 154.17 93.24 154.12 93.25 154.07C93.29 154 93.34 153.93 93.38 153.86C93.43 153.79 93.48 153.73 93.53 153.66C93.58 153.6 93.63 153.54 93.69 153.48C93.75 153.42 93.8 153.36 93.86 153.31C93.9 153.28 93.92 153.25 93.94 153.22C93.97 153.19 93.98 153.15 93.99 153.11C94 153.07 94 153.04 94 153C93.99 152.96 93.98 152.92 93.96 152.88C93.84 152.54 93.73 152.2 93.64 151.85C93.54 151.5 93.46 151.15 93.39 150.79C93.32 150.44 93.27 150.08 93.23 149.72C93.19 149.36 93.17 149 93.16 148.64C93.15 148.6 93.15 148.57 93.14 148.54C93.13 148.5 93.12 148.47 93.1 148.44C93.09 148.41 93.07 148.38 93.05 148.36C93.03 148.33 93.01 148.3 92.98 148.28C92.89 148.2 92.79 148.11 92.71 148.01C92.62 147.92 92.54 147.82 92.47 147.71C92.4 147.6 92.33 147.49 92.28 147.38C92.22 147.26 92.17 147.14 92.13 147.02C92.12 146.99 92.11 146.95 92.09 146.92C92.07 146.89 92.04 146.86 92.02 146.83C91.99 146.81 91.95 146.79 91.92 146.78C91.89 146.76 91.85 146.75 91.81 146.75C91.34 146.66 90.87 146.56 90.4 146.45C89.65 146.28 88.92 146.11 88.19 145.94ZM103.26 155.3C103.3 155.23 103.36 155.09 103.44 154.95C103.45 154.92 103.47 154.89 103.49 154.85C103.51 154.82 103.53 154.79 103.55 154.76C103.57 154.72 103.6 154.69 103.62 154.66C103.64 154.63 103.67 154.6 103.7 154.57C103.72 154.55 103.75 154.52 103.77 154.49C103.79 154.45 103.8 154.42 103.8 154.38C103.81 154.34 103.8 154.3 103.79 154.27C103.78 154.23 103.77 154.2 103.75 154.16C103.57 153.8 103.41 153.43 103.27 153.06C103.12 152.68 103 152.29 102.89 151.91C102.78 151.52 102.69 151.12 102.62 150.73C102.54 150.33 102.49 149.93 102.45 149.53C102.45 149.51 102.44 149.48 102.44 149.46C102.43 149.44 102.42 149.41 102.41 149.39C102.4 149.37 102.39 149.35 102.37 149.33C102.36 149.31 102.34 149.29 102.32 149.28C102.22 149.2 102.13 149.11 102.04 149.02C101.95 148.93 101.87 148.84 101.79 148.74C101.72 148.64 101.65 148.54 101.58 148.43C101.52 148.32 101.46 148.21 101.41 148.09C101.4 148.07 101.38 148.05 101.37 148.03C101.35 148.01 101.33 147.99 101.31 147.98C101.29 147.96 101.27 147.95 101.25 147.94C101.22 147.93 101.2 147.92 101.18 147.92C99.9 147.81 98.63 147.71 97.36 147.6C97.32 147.59 97.28 147.59 97.24 147.6C97.2 147.6 97.17 147.61 97.13 147.63C97.09 147.65 97.06 147.67 97.03 147.69C97 147.72 96.97 147.75 96.95 147.78C96.85 147.92 96.74 148.05 96.62 148.17C96.49 148.28 96.36 148.39 96.22 148.48C96.07 148.57 95.92 148.65 95.76 148.71C95.61 148.77 95.44 148.82 95.28 148.85C95.19 148.87 95.11 148.9 95.02 148.92C95.03 149.22 95.06 149.52 95.09 149.81C95.13 150.11 95.18 150.4 95.24 150.69C95.3 150.98 95.37 151.27 95.46 151.55C95.54 151.84 95.64 152.12 95.74 152.4C95.76 152.43 95.78 152.46 95.8 152.48C95.82 152.51 95.84 152.53 95.87 152.55C95.89 152.57 95.92 152.59 95.95 152.6C95.98 152.61 96.01 152.63 96.04 152.63C96.33 152.67 96.61 152.76 96.87 152.88C97.14 153.01 97.38 153.18 97.59 153.38C97.8 153.59 97.97 153.82 98.11 154.08C98.24 154.33 98.34 154.61 98.39 154.9C98.39 154.93 98.4 154.97 98.41 155C98.43 155.03 98.45 155.06 98.48 155.08C98.5 155.1 98.53 155.12 98.57 155.13C98.6 155.14 98.64 155.14 98.67 155.14C99.4 155.19 100.13 155.27 100.86 155.3C101.64 155.33 102.43 155.3 103.26 155.3L103.26 155.3ZM114.21 158.18C113.98 158.18 113.74 158.15 113.51 158.09C113.28 158.03 113.06 157.94 112.85 157.83C112.64 157.71 112.45 157.57 112.28 157.41C112.11 157.25 111.95 157.07 111.82 156.87C111.8 156.85 111.78 156.83 111.76 156.82C111.73 156.8 111.71 156.79 111.68 156.78C111.66 156.77 111.63 156.77 111.6 156.76C111.57 156.76 111.55 156.76 111.52 156.76C110.6 156.85 109.68 156.96 108.76 157.04C108.72 157.04 108.69 157.04 108.65 157.05C108.62 157.06 108.59 157.08 108.56 157.1C108.53 157.12 108.51 157.14 108.49 157.17C108.47 157.2 108.46 157.23 108.45 157.27C108.39 157.43 108.32 157.59 108.23 157.74C108.15 157.88 108.04 158.02 107.93 158.15C107.82 158.28 107.69 158.4 107.55 158.51C107.42 158.61 107.27 158.7 107.12 158.78C107.08 158.79 107.04 158.81 107.01 158.84C106.97 158.87 106.95 158.9 106.93 158.94C106.9 158.97 106.89 159.01 106.88 159.05C106.87 159.09 106.87 159.14 106.88 159.18C106.89 159.51 106.89 159.84 106.87 160.17C106.85 160.5 106.82 160.83 106.78 161.16C106.74 161.49 106.68 161.82 106.61 162.14C106.54 162.47 106.46 162.79 106.36 163.11C106.31 163.21 106.28 163.32 106.26 163.43C106.24 163.54 106.23 163.66 106.25 163.77C106.26 163.89 106.29 164 106.34 164.1C106.38 164.21 106.44 164.31 106.52 164.4C106.53 164.42 106.55 164.44 106.57 164.46C106.6 164.48 106.62 164.5 106.65 164.51C106.67 164.53 106.7 164.54 106.73 164.55C106.75 164.56 106.78 164.57 106.81 164.57C108.29 164.45 109.76 164.33 111.24 164.19C111.26 164.18 111.29 164.17 111.31 164.16C111.34 164.15 111.36 164.13 111.38 164.12C111.4 164.1 111.42 164.08 111.44 164.06C111.45 164.04 111.47 164.01 111.48 163.99C111.55 163.72 111.66 163.45 111.8 163.21C111.95 162.97 112.13 162.76 112.34 162.57C112.55 162.38 112.79 162.23 113.04 162.11C113.3 162 113.57 161.92 113.85 161.89C113.87 161.88 113.89 161.88 113.92 161.87C113.94 161.86 113.96 161.85 113.97 161.83C113.99 161.82 114.01 161.8 114.02 161.78C114.04 161.77 114.05 161.75 114.06 161.73C114.12 161.44 114.17 161.14 114.21 160.85C114.24 160.55 114.27 160.26 114.28 159.96C114.3 159.66 114.3 159.36 114.28 159.07C114.27 158.77 114.25 158.47 114.21 158.18L114.21 158.18ZM104.54 162.78C104.63 162.48 104.71 162.18 104.77 161.88C104.84 161.58 104.89 161.28 104.93 160.97C104.97 160.67 105 160.36 105.01 160.05C105.03 159.74 105.03 159.43 105.02 159.13C105.02 159.04 104.89 158.94 104.8 158.89C104.64 158.83 104.48 158.75 104.34 158.65C104.2 158.56 104.06 158.45 103.94 158.33C103.81 158.21 103.7 158.08 103.6 157.94C103.5 157.8 103.41 157.65 103.34 157.49C103.33 157.45 103.3 157.41 103.28 157.37C103.25 157.34 103.21 157.31 103.17 157.28C103.13 157.26 103.09 157.24 103.04 157.23C103 157.22 102.95 157.22 102.91 157.22C101.36 157.14 99.81 157.05 98.26 156.95C98.16 156.96 98.07 156.98 97.98 157.02C97.89 157.06 97.81 157.12 97.74 157.19C97.68 157.26 97.62 157.34 97.58 157.43C97.54 157.51 97.51 157.61 97.51 157.71C97.55 158.08 97.59 158.45 97.6 158.83C97.62 159.2 97.62 159.58 97.61 159.95C97.59 160.32 97.57 160.7 97.52 161.07C97.48 161.44 97.42 161.81 97.35 162.18C97.34 162.21 97.34 162.24 97.34 162.27C97.35 162.3 97.35 162.33 97.36 162.36C97.37 162.39 97.38 162.42 97.4 162.45C97.41 162.47 97.43 162.5 97.45 162.52C97.57 162.63 97.69 162.74 97.79 162.87C97.89 162.99 97.98 163.13 98.06 163.27C98.14 163.41 98.21 163.56 98.27 163.71C98.32 163.86 98.37 164.02 98.4 164.18C98.41 164.2 98.42 164.22 98.43 164.25C98.45 164.27 98.47 164.29 98.49 164.31C98.51 164.33 98.53 164.34 98.55 164.35C98.57 164.37 98.6 164.38 98.63 164.38C99.45 164.46 100.29 164.51 101.11 164.58C101.16 164.59 101.2 164.59 101.24 164.59C101.28 164.58 101.32 164.57 101.36 164.55C101.39 164.53 101.43 164.5 101.45 164.47C101.48 164.43 101.5 164.4 101.51 164.36C101.6 164.17 101.7 164 101.82 163.84C101.95 163.68 102.09 163.54 102.25 163.41C102.4 163.29 102.57 163.18 102.75 163.09C102.93 163.01 103.12 162.94 103.32 162.9C103.42 162.88 103.52 162.87 103.62 162.85C103.73 162.84 103.83 162.83 103.93 162.82C104.03 162.81 104.13 162.8 104.24 162.79C104.34 162.79 104.44 162.78 104.54 162.78L104.54 162.78ZM104.38 149.91C104.38 149.92 104.38 149.93 104.38 149.94C104.37 149.95 104.37 149.96 104.37 149.97C104.37 149.98 104.37 149.99 104.38 150C104.38 150.02 104.38 150.03 104.38 150.04C104.42 150.32 104.47 150.6 104.54 150.88C104.6 151.15 104.67 151.43 104.76 151.7C104.84 151.97 104.93 152.24 105.03 152.51C105.14 152.78 105.25 153.04 105.37 153.3C105.38 153.34 105.4 153.37 105.43 153.41C105.45 153.44 105.49 153.47 105.52 153.49C105.56 153.51 105.59 153.53 105.64 153.54C105.68 153.55 105.72 153.55 105.76 153.54C106.01 153.53 106.27 153.56 106.52 153.62C106.77 153.68 107 153.77 107.22 153.9C107.45 154.02 107.65 154.18 107.83 154.36C108 154.55 108.15 154.76 108.27 154.98C108.29 155.02 108.31 155.05 108.33 155.08C108.36 155.11 108.39 155.14 108.42 155.16C108.46 155.18 108.49 155.19 108.53 155.2C108.57 155.21 108.61 155.21 108.65 155.2C109.51 155.1 110.37 155.03 111.22 154.93C111.25 154.92 111.28 154.91 111.31 154.89C111.33 154.88 111.36 154.86 111.38 154.84C111.4 154.82 111.42 154.8 111.44 154.78C111.46 154.76 111.47 154.73 111.48 154.7C111.52 154.56 111.57 154.43 111.63 154.3C111.69 154.17 111.76 154.04 111.83 153.92C111.91 153.8 111.99 153.68 112.09 153.57C112.18 153.46 112.28 153.36 112.39 153.26C112.41 153.24 112.42 153.21 112.44 153.19C112.45 153.16 112.46 153.13 112.47 153.11C112.48 153.08 112.48 153.05 112.48 153.02C112.48 152.99 112.48 152.96 112.47 152.93C112.36 152.62 112.26 152.31 112.17 152C112.08 151.68 112 151.36 111.94 151.04C111.87 150.71 111.82 150.39 111.78 150.06C111.74 149.74 111.71 149.41 111.7 149.08C111.71 148.98 111.71 148.88 111.69 148.77C111.68 148.67 111.65 148.57 111.61 148.48C111.56 148.38 111.51 148.29 111.44 148.22C111.38 148.14 111.3 148.06 111.22 148.01C111.2 147.99 111.18 147.98 111.16 147.96C111.15 147.95 111.13 147.93 111.12 147.91C111.1 147.89 111.09 147.88 111.07 147.86C111.06 147.84 111.05 147.82 111.04 147.8C110.94 147.6 110.8 147.59 110.61 147.6C109.35 147.71 108.09 147.8 106.83 147.92C106.8 147.92 106.77 147.93 106.75 147.94C106.72 147.95 106.7 147.97 106.68 147.98C106.66 148 106.64 148.02 106.62 148.04C106.6 148.06 106.59 148.08 106.57 148.11C106.53 148.22 106.48 148.33 106.42 148.43C106.36 148.54 106.29 148.64 106.21 148.73C106.14 148.83 106.06 148.92 105.97 149C105.88 149.09 105.79 149.17 105.69 149.24C105.59 149.3 105.48 149.36 105.37 149.42C105.26 149.48 105.15 149.53 105.04 149.59C104.94 149.65 104.82 149.7 104.71 149.75C104.6 149.81 104.49 149.86 104.38 149.91L104.38 149.91ZM106.77 156.33C106.77 156.21 106.75 156.09 106.71 155.98C106.66 155.87 106.6 155.76 106.51 155.68C106.43 155.59 106.33 155.52 106.22 155.47C106.11 155.42 105.99 155.39 105.87 155.39C105.75 155.39 105.63 155.41 105.52 155.45C105.41 155.5 105.31 155.56 105.22 155.65C105.13 155.73 105.06 155.83 105.01 155.94C104.96 156.05 104.93 156.17 104.93 156.29C104.92 156.41 104.94 156.53 104.99 156.65C105.03 156.76 105.1 156.87 105.19 156.96C105.27 157.04 105.37 157.12 105.49 157.16C105.6 157.21 105.72 157.24 105.84 157.24C105.96 157.24 106.08 157.22 106.2 157.17C106.31 157.13 106.41 157.06 106.49 156.97C106.58 156.89 106.65 156.79 106.7 156.68C106.74 156.57 106.77 156.45 106.77 156.33L106.77 156.33ZM114.18 146.14C114.18 146.02 114.16 145.9 114.11 145.79C114.07 145.68 114 145.58 113.92 145.49C113.84 145.4 113.74 145.33 113.63 145.28C113.52 145.23 113.4 145.2 113.28 145.2C113.16 145.2 113.04 145.22 112.92 145.27C112.81 145.31 112.7 145.38 112.62 145.47C112.53 145.55 112.46 145.66 112.41 145.77C112.36 145.88 112.33 146 112.33 146.13C112.33 146.25 112.36 146.37 112.41 146.48C112.45 146.59 112.52 146.69 112.6 146.77C112.69 146.86 112.79 146.93 112.9 146.97C113.01 147.02 113.13 147.05 113.25 147.05C113.37 147.05 113.49 147.03 113.6 146.98C113.71 146.94 113.81 146.87 113.9 146.79C113.99 146.7 114.06 146.6 114.1 146.49C114.15 146.38 114.18 146.26 114.18 146.14L114.18 146.14ZM103.65 146.2C103.54 146.25 103.44 146.32 103.35 146.4C103.27 146.49 103.2 146.59 103.15 146.7C103.1 146.81 103.08 146.93 103.08 147.05C103.08 147.17 103.1 147.29 103.15 147.4C103.19 147.51 103.26 147.61 103.34 147.7C103.43 147.78 103.53 147.85 103.64 147.9C103.75 147.95 103.87 147.97 103.99 147.98C104.11 147.98 104.23 147.95 104.35 147.91C104.46 147.86 104.56 147.79 104.65 147.71C104.74 147.62 104.81 147.52 104.85 147.4C104.9 147.29 104.93 147.17 104.93 147.04C104.92 146.92 104.9 146.81 104.85 146.7C104.8 146.58 104.73 146.48 104.65 146.4C104.56 146.31 104.46 146.25 104.35 146.2C104.24 146.15 104.12 146.13 104 146.13C103.88 146.13 103.76 146.15 103.65 146.2ZM115.11 164.65C115.11 164.53 115.09 164.41 115.04 164.3C114.99 164.19 114.92 164.09 114.84 164C114.75 163.92 114.65 163.85 114.54 163.8C114.43 163.75 114.31 163.73 114.19 163.72C114.07 163.73 113.95 163.75 113.84 163.8C113.73 163.84 113.63 163.91 113.54 163.99C113.46 164.08 113.39 164.18 113.34 164.29C113.29 164.4 113.27 164.52 113.26 164.64C113.26 164.76 113.29 164.88 113.33 165C113.38 165.11 113.45 165.21 113.53 165.3C113.62 165.39 113.73 165.46 113.84 165.5C113.95 165.55 114.07 165.57 114.2 165.57C114.32 165.57 114.44 165.55 114.55 165.5C114.66 165.45 114.76 165.38 114.84 165.3C114.92 165.21 114.99 165.11 115.04 165C115.08 164.89 115.11 164.77 115.11 164.65L115.11 164.65ZM104.93 165.57C104.92 165.45 104.9 165.33 104.85 165.22C104.8 165.11 104.73 165.01 104.65 164.93C104.56 164.84 104.46 164.77 104.35 164.73C104.24 164.68 104.12 164.65 104 164.65C103.88 164.65 103.76 164.68 103.65 164.73C103.53 164.77 103.43 164.85 103.34 164.93C103.26 165.02 103.19 165.12 103.14 165.24C103.1 165.35 103.08 165.48 103.08 165.6C103.08 165.72 103.11 165.84 103.16 165.95C103.2 166.06 103.27 166.16 103.36 166.24C103.45 166.32 103.55 166.39 103.66 166.43C103.77 166.48 103.89 166.5 104.01 166.5C104.13 166.5 104.25 166.47 104.36 166.42C104.47 166.37 104.57 166.31 104.66 166.22C104.74 166.13 104.81 166.03 104.85 165.92C104.9 165.81 104.92 165.69 104.92 165.57L104.93 165.57ZM95.66 146.13C95.66 146.01 95.64 145.89 95.59 145.78C95.55 145.67 95.48 145.57 95.39 145.48C95.31 145.4 95.21 145.33 95.1 145.28C94.99 145.23 94.87 145.21 94.75 145.2C94.63 145.2 94.51 145.23 94.4 145.27C94.29 145.32 94.18 145.38 94.1 145.47C94.01 145.55 93.94 145.65 93.89 145.76C93.85 145.87 93.82 145.99 93.82 146.11C93.81 146.23 93.84 146.36 93.88 146.47C93.93 146.59 94 146.69 94.08 146.78C94.17 146.86 94.27 146.93 94.39 146.98C94.5 147.03 94.62 147.05 94.75 147.05C94.87 147.05 94.98 147.02 95.09 146.98C95.21 146.93 95.31 146.86 95.39 146.78C95.47 146.69 95.54 146.59 95.59 146.48C95.63 146.37 95.66 146.25 95.66 146.13L95.66 146.13ZM95.66 154.46C95.54 154.46 95.43 154.49 95.31 154.53C95.2 154.58 95.1 154.65 95.02 154.73C94.93 154.82 94.86 154.92 94.81 155.03C94.77 155.14 94.74 155.26 94.74 155.38C94.74 155.5 94.76 155.62 94.8 155.73C94.85 155.84 94.91 155.94 95 156.03C95.08 156.12 95.18 156.19 95.29 156.23C95.4 156.28 95.52 156.31 95.64 156.31C95.76 156.31 95.88 156.29 96 156.25C96.11 156.2 96.21 156.13 96.3 156.05C96.39 155.96 96.46 155.86 96.51 155.74C96.56 155.63 96.58 155.51 96.58 155.39C96.58 155.27 96.55 155.15 96.51 155.04C96.46 154.93 96.39 154.83 96.31 154.74C96.22 154.66 96.12 154.59 96.01 154.54C95.9 154.49 95.79 154.47 95.66 154.46ZM114.2 156.31C114.32 156.31 114.44 156.28 114.55 156.24C114.66 156.19 114.76 156.12 114.84 156.04C114.93 155.95 114.99 155.85 115.04 155.74C115.08 155.62 115.11 155.51 115.11 155.38C115.11 155.26 115.08 155.15 115.03 155.03C114.99 154.92 114.92 154.82 114.83 154.74C114.75 154.65 114.65 154.58 114.54 154.54C114.43 154.49 114.31 154.47 114.19 154.46C114.06 154.46 113.94 154.49 113.83 154.54C113.72 154.59 113.61 154.66 113.53 154.74C113.44 154.83 113.37 154.94 113.33 155.05C113.28 155.16 113.26 155.29 113.26 155.41C113.26 155.53 113.29 155.65 113.34 155.76C113.39 155.87 113.46 155.97 113.54 156.05C113.63 156.14 113.73 156.2 113.85 156.25C113.96 156.29 114.08 156.31 114.2 156.31L114.2 156.31ZM96.59 164.66C96.59 164.66 96.59 164.66 96.59 164.66C96.59 164.66 96.59 164.66 96.59 164.66L96.59 164.66ZM96.52 164.31C96.47 164.2 96.41 164.1 96.32 164.01C96.24 163.93 96.14 163.86 96.03 163.81C95.92 163.76 95.8 163.73 95.68 163.72C95.56 163.72 95.44 163.75 95.33 163.79C95.22 163.84 95.11 163.9 95.03 163.98C94.94 164.07 94.87 164.17 94.82 164.28C94.77 164.39 94.74 164.5 94.74 164.62C94.73 164.75 94.75 164.87 94.8 164.98C94.84 165.1 94.91 165.2 95 165.29C95.08 165.38 95.18 165.45 95.3 165.5C95.41 165.55 95.53 165.57 95.66 165.57C95.78 165.57 95.9 165.55 96.01 165.5C96.12 165.46 96.22 165.39 96.31 165.31C96.39 165.22 96.46 165.12 96.51 165.01C96.56 164.9 96.58 164.78 96.59 164.66C96.59 164.54 96.56 164.42 96.52 164.31Z" />
		</g>
		<g id="Layer">
			<path id="Layer" class="shp5" d="M59.7 250.85C59.65 250.71 59.58 250.58 59.49 250.47C59.4 250.36 59.29 250.26 59.16 250.18C59.04 250.11 58.9 250.05 58.76 250.02C58.61 249.99 58.47 249.99 58.32 250.01C54.03 250.02 49.74 250.01 45.44 250.01C44.44 250.01 44.06 250.39 44.06 251.39C44.06 252.44 44.06 253.5 44.06 254.55C44.06 255.43 44.46 255.84 45.33 255.84C49.7 255.84 54.07 255.84 58.44 255.85C58.57 255.86 58.71 255.84 58.84 255.81C58.97 255.78 59.1 255.72 59.21 255.65C59.32 255.58 59.42 255.48 59.51 255.38C59.59 255.27 59.66 255.15 59.7 255.03L59.7 250.85Z" />
			<path id="Layer" class="shp5" d="M59.7 234.93C59.65 234.8 59.58 234.67 59.49 234.56C59.4 234.45 59.29 234.35 59.17 234.28C59.05 234.2 58.91 234.15 58.77 234.12C58.63 234.09 58.49 234.08 58.35 234.1C54.04 234.11 49.74 234.11 45.43 234.11C44.43 234.11 44.06 234.49 44.06 235.49C44.06 236.53 44.06 237.58 44.06 238.62C44.06 239.53 44.46 239.94 45.37 239.94C49.7 239.94 54.02 239.93 58.35 239.94C58.49 239.96 58.63 239.95 58.77 239.92C58.91 239.89 59.05 239.84 59.17 239.76C59.29 239.69 59.4 239.59 59.49 239.48C59.58 239.37 59.65 239.24 59.7 239.11L59.7 234.93Z" />
			<path id="Layer" class="shp5" d="M42.97 226.16C40.82 226.16 38.66 226.16 36.51 226.16C35.57 226.16 35.18 226.55 35.18 227.48C35.18 228.56 35.18 229.65 35.18 230.74C35.16 230.91 35.17 231.08 35.23 231.24C35.28 231.4 35.38 231.55 35.5 231.67C35.62 231.79 35.76 231.88 35.93 231.93C36.09 231.99 36.26 232 36.43 231.98C40.81 231.98 45.19 231.98 49.57 231.98C49.74 232 49.91 231.99 50.07 231.93C50.23 231.88 50.38 231.79 50.5 231.67C50.62 231.55 50.72 231.4 50.77 231.24C50.83 231.08 50.84 230.91 50.82 230.74C50.82 229.64 50.82 228.54 50.82 227.44C50.82 226.56 50.42 226.16 49.52 226.16C47.34 226.15 45.15 226.15 42.97 226.16Z" />
			<path id="Layer" class="shp5" d="M34.1 255.84L40.59 255.84C41.56 255.84 41.94 255.46 41.94 254.47C41.94 253.42 41.94 252.37 41.94 251.31C41.97 251.13 41.96 250.95 41.9 250.78C41.85 250.61 41.75 250.45 41.62 250.33C41.5 250.2 41.34 250.1 41.17 250.05C41 249.99 40.82 249.98 40.64 250.01L27.6 250.01C26.7 250.01 26.3 250.41 26.3 251.3C26.3 252.4 26.3 253.49 26.3 254.59C26.27 254.76 26.29 254.93 26.34 255.09C26.4 255.26 26.49 255.4 26.61 255.52C26.73 255.64 26.87 255.73 27.04 255.79C27.2 255.84 27.37 255.86 27.54 255.84C29.72 255.84 31.91 255.84 34.1 255.84Z" />
			<path id="Layer" class="shp5" d="M43.02 247.89L49.47 247.89C50.44 247.89 50.82 247.5 50.82 246.55C50.82 245.47 50.82 244.4 50.82 243.32C50.85 243.15 50.83 242.97 50.78 242.81C50.72 242.64 50.63 242.5 50.5 242.37C50.38 242.25 50.23 242.16 50.07 242.1C49.9 242.05 49.73 242.03 49.56 242.06C45.19 242.06 40.82 242.06 36.45 242.06C36.28 242.03 36.1 242.05 35.94 242.1C35.77 242.16 35.62 242.25 35.5 242.37C35.38 242.49 35.28 242.64 35.23 242.81C35.17 242.97 35.16 243.15 35.18 243.32C35.18 244.43 35.18 245.54 35.18 246.64C35.16 246.81 35.17 246.99 35.23 247.15C35.28 247.31 35.37 247.46 35.49 247.58C35.62 247.7 35.76 247.79 35.93 247.84C36.09 247.9 36.26 247.91 36.43 247.89C38.63 247.89 40.82 247.89 43.02 247.89Z" />
			<path id="Layer" class="shp5" d="M34.13 234.11L27.64 234.11C26.68 234.11 26.3 234.49 26.3 235.45C26.3 236.54 26.3 237.63 26.3 238.71C26.28 238.88 26.29 239.04 26.34 239.2C26.4 239.36 26.48 239.5 26.6 239.62C26.71 239.73 26.86 239.82 27.01 239.88C27.17 239.93 27.33 239.95 27.5 239.94C31.91 239.94 36.32 239.94 40.74 239.94C40.9 239.95 41.06 239.93 41.21 239.88C41.37 239.83 41.51 239.74 41.62 239.62C41.74 239.51 41.83 239.37 41.88 239.21C41.93 239.06 41.95 238.9 41.94 238.74C41.94 237.61 41.94 236.47 41.94 235.34C41.96 235.17 41.94 235 41.89 234.84C41.83 234.68 41.74 234.53 41.62 234.41C41.5 234.29 41.35 234.2 41.18 234.15C41.02 234.1 40.85 234.08 40.68 234.11C38.5 234.11 36.31 234.11 34.13 234.11Z" />
			<path id="Layer" class="shp5" d="M29.73 247.89C30.43 247.89 31.12 247.89 31.82 247.89C31.98 247.91 32.15 247.89 32.31 247.84C32.47 247.79 32.61 247.7 32.73 247.58C32.85 247.46 32.94 247.32 33 247.16C33.05 247 33.07 246.83 33.05 246.67C33.05 245.54 33.05 244.41 33.05 243.28C33.07 243.11 33.05 242.94 32.99 242.78C32.94 242.63 32.85 242.48 32.73 242.36C32.61 242.25 32.47 242.16 32.31 242.1C32.15 242.05 31.98 242.04 31.81 242.06C30.41 242.06 29.01 242.06 27.61 242.06C27.44 242.04 27.27 242.06 27.11 242.11C26.95 242.17 26.8 242.26 26.68 242.38C26.56 242.5 26.47 242.65 26.42 242.81C26.37 242.98 26.35 243.15 26.38 243.32C26.38 244.42 26.38 245.53 26.38 246.64C26.35 246.81 26.37 246.98 26.42 247.14C26.48 247.3 26.57 247.45 26.69 247.57C26.81 247.69 26.95 247.78 27.11 247.84C27.28 247.89 27.45 247.91 27.62 247.89C28.32 247.89 29.03 247.89 29.73 247.89Z" />
			<path id="Layer" class="shp5" d="M56.27 242.06C55.57 242.06 54.88 242.06 54.19 242.06C54.02 242.03 53.85 242.05 53.7 242.1C53.54 242.15 53.39 242.24 53.27 242.36C53.15 242.48 53.06 242.62 53.01 242.78C52.95 242.94 52.93 243.11 52.95 243.28C52.95 244.4 52.95 245.53 52.95 246.66C52.93 246.83 52.95 247 53 247.16C53.06 247.32 53.15 247.46 53.26 247.58C53.38 247.7 53.53 247.79 53.69 247.84C53.85 247.89 54.02 247.91 54.18 247.88C55.58 247.89 56.98 247.89 58.38 247.88C58.55 247.91 58.72 247.89 58.89 247.84C59.05 247.78 59.19 247.69 59.31 247.57C59.44 247.45 59.53 247.3 59.58 247.14C59.63 246.98 59.65 246.81 59.62 246.64C59.62 245.53 59.62 244.42 59.62 243.32C59.65 243.14 59.63 242.97 59.58 242.81C59.52 242.64 59.43 242.49 59.3 242.37C59.18 242.25 59.03 242.16 58.87 242.1C58.7 242.05 58.53 242.03 58.36 242.06C57.66 242.06 56.97 242.06 56.27 242.06Z" />
			<path id="Layer" class="shp5" d="M29.7 226.16C29 226.16 28.31 226.16 27.61 226.16C27.44 226.13 27.27 226.15 27.11 226.2C26.95 226.26 26.8 226.35 26.68 226.47C26.56 226.59 26.47 226.74 26.42 226.9C26.36 227.06 26.35 227.24 26.37 227.4C26.37 228.51 26.37 229.62 26.37 230.73C26.35 230.9 26.37 231.07 26.42 231.23C26.47 231.39 26.56 231.54 26.68 231.66C26.8 231.78 26.95 231.87 27.11 231.93C27.27 231.98 27.44 232 27.61 231.98C29.01 231.98 30.41 231.98 31.81 231.98C31.98 232 32.15 231.99 32.31 231.94C32.47 231.88 32.61 231.79 32.73 231.68C32.85 231.56 32.94 231.41 32.99 231.25C33.05 231.1 33.07 230.93 33.04 230.76C33.05 229.63 33.05 228.5 33.04 227.37C33.07 227.21 33.05 227.04 32.99 226.88C32.94 226.72 32.85 226.58 32.73 226.46C32.61 226.34 32.47 226.25 32.31 226.2C32.15 226.15 31.98 226.13 31.81 226.15L29.69 226.15L29.7 226.16Z" />
			<path id="Layer" class="shp5" d="M56.26 226.16C55.57 226.16 54.87 226.16 54.18 226.16C54.01 226.13 53.84 226.15 53.68 226.2C53.53 226.25 53.38 226.34 53.26 226.46C53.14 226.58 53.05 226.73 53 226.88C52.95 227.04 52.93 227.21 52.95 227.38C52.95 228.5 52.95 229.62 52.95 230.73C52.93 230.9 52.95 231.07 53 231.24C53.05 231.4 53.14 231.55 53.26 231.67C53.38 231.79 53.53 231.88 53.69 231.93C53.85 231.99 54.02 232 54.19 231.98C55.59 231.98 56.99 231.98 58.39 231.98C58.56 232 58.73 231.98 58.89 231.93C59.05 231.88 59.19 231.79 59.31 231.67C59.43 231.55 59.52 231.41 59.57 231.25C59.63 231.09 59.65 230.92 59.63 230.75C59.63 229.63 59.63 228.52 59.63 227.4C59.65 227.23 59.63 227.06 59.58 226.89C59.52 226.73 59.43 226.59 59.31 226.47C59.19 226.35 59.04 226.25 58.88 226.2C58.72 226.15 58.55 226.13 58.38 226.16C57.68 226.15 56.97 226.16 56.26 226.16Z" />
		</g>
		<g id="Layer">
			<path id="Layer" class="shp5" d="M599.69 250.3C599.64 250.41 599.58 250.51 599.5 250.59C599.42 250.68 599.33 250.75 599.23 250.81C599.13 250.87 599.02 250.91 598.9 250.93C598.79 250.96 598.67 250.96 598.55 250.94C597.04 250.92 595.54 250.94 594.03 250.94L593.69 250.94C593.5 249.39 593.31 247.86 593.11 246.31C593.23 246.3 593.31 246.3 593.4 246.3C595.1 246.3 596.8 246.3 598.5 246.29C598.71 246.29 598.79 246.35 598.84 246.56C599.07 247.55 599.33 248.53 599.58 249.51C599.6 249.62 599.65 249.73 599.69 249.83L599.69 250.3Z" />
			<path id="Layer" class="shp5" d="M585.08 226C585.19 226.04 585.29 226.11 585.38 226.19C585.47 226.27 585.54 226.36 585.6 226.47C585.66 226.57 585.7 226.69 585.72 226.8C585.74 226.92 585.74 227.04 585.72 227.16C585.69 227.55 585.72 227.95 585.72 228.34L584.01 228.34C584.01 227.79 583.98 227.21 584.02 226.64C584.04 226.31 584.34 226.14 584.61 226L585.08 226Z" />
			<g id="Layer">
				<path id="Layer" class="shp5" d="M578.81 255.69C578.81 255.69 578.8 255.68 578.79 255.68C578.79 255.67 578.78 255.66 578.77 255.66C578.76 255.65 578.76 255.65 578.75 255.64C578.74 255.64 578.73 255.63 578.73 255.63C578.63 255.59 578.55 255.54 578.47 255.47C578.39 255.4 578.33 255.32 578.28 255.23C578.24 255.14 578.2 255.05 578.19 254.94C578.17 254.84 578.18 254.74 578.19 254.64C578.22 254.54 578.26 254.44 578.31 254.36C578.37 254.27 578.44 254.19 578.52 254.13C578.61 254.07 578.7 254.02 578.8 253.99C578.9 253.96 579 253.95 579.11 253.95C579.82 253.95 580.53 253.95 581.27 253.95C581.38 253.53 581.49 253.11 581.59 252.69L588.09 252.69L588.41 253.95C589.13 253.95 589.86 253.95 590.58 253.95C590.66 253.95 590.74 253.96 590.81 253.97C590.89 253.99 590.97 254.02 591.04 254.05C591.11 254.09 591.17 254.14 591.23 254.19C591.29 254.25 591.34 254.31 591.38 254.38C591.44 254.48 591.48 254.58 591.49 254.7C591.51 254.81 591.51 254.92 591.48 255.03C591.45 255.14 591.4 255.25 591.33 255.34C591.27 255.43 591.18 255.51 591.08 255.56C591.01 255.61 590.94 255.65 590.87 255.69L578.81 255.69Z" />
				<path id="Layer" class="shp5" d="M570 249.84C570.19 249.11 570.39 248.39 570.58 247.66C570.68 247.27 570.76 246.87 570.88 246.48C570.88 246.46 570.89 246.44 570.91 246.42C570.92 246.4 570.94 246.38 570.95 246.37C570.97 246.35 570.99 246.34 571.01 246.33C571.03 246.32 571.05 246.31 571.08 246.31C572.88 246.3 574.69 246.31 576.5 246.31C576.51 246.31 576.53 246.32 576.58 246.34L576 250.92C575.89 250.92 575.79 250.94 575.69 250.94C574.17 250.94 572.65 250.92 571.14 250.94C571.02 250.96 570.9 250.96 570.79 250.93C570.67 250.91 570.56 250.87 570.46 250.81C570.36 250.75 570.26 250.68 570.19 250.59C570.11 250.51 570.04 250.41 570 250.3L570 249.84Z" />
				<path id="Layer" class="shp5" d="M584.82 237.6L580.53 237.6C580.41 237.62 580.28 237.62 580.16 237.58C580.03 237.55 579.92 237.49 579.82 237.42C579.72 237.34 579.64 237.24 579.58 237.13C579.52 237.02 579.48 236.89 579.47 236.77C579.31 236.02 579.3 235.25 579.45 234.5C579.6 233.75 579.9 233.04 580.34 232.41C580.78 231.78 581.35 231.26 582 230.86C582.66 230.46 583.39 230.21 584.15 230.11C584.94 230.01 585.75 230.08 586.51 230.32C587.28 230.57 587.98 230.97 588.57 231.52C589.16 232.06 589.63 232.72 589.93 233.46C590.24 234.2 590.38 235 590.35 235.8C590.34 235.89 590.33 235.98 590.32 236.07C590.32 236.16 590.3 236.25 590.29 236.34C590.28 236.43 590.26 236.51 590.25 236.6C590.23 236.69 590.21 236.78 590.19 236.86C590.17 236.97 590.14 237.08 590.09 237.17C590.03 237.27 589.96 237.35 589.87 237.42C589.79 237.49 589.69 237.54 589.59 237.57C589.48 237.6 589.37 237.61 589.26 237.6C587.78 237.6 586.3 237.6 584.82 237.6Z" />
				<path id="Layer" class="shp5" d="M577.76 250.91L578.34 246.31L583.96 246.31L583.96 250.91L577.76 250.91Z" />
				<path id="Layer" class="shp5" d="M585.73 250.92L585.73 246.32L591.36 246.32C591.55 247.84 591.74 249.37 591.93 250.92L585.73 250.92Z" />
				<path id="Layer" class="shp5" d="M577.38 239.94C577.18 241.48 576.99 243.01 576.8 244.54L571.36 244.54C571.48 244.03 571.61 243.53 571.73 243.03C571.93 242.23 572.12 241.44 572.33 240.65C572.34 240.54 572.38 240.44 572.43 240.35C572.48 240.26 572.55 240.18 572.63 240.12C572.71 240.05 572.8 240 572.9 239.97C573 239.93 573.11 239.92 573.21 239.92C574.54 239.91 575.88 239.92 577.21 239.92C577.25 239.92 577.3 239.93 577.38 239.94Z" />
				<path id="Layer" class="shp5" d="M598.32 244.54L592.89 244.54C592.7 243.02 592.51 241.49 592.31 239.93C592.41 239.93 592.5 239.92 592.58 239.92C593.85 239.92 595.11 239.92 596.38 239.92C596.49 239.9 596.61 239.91 596.72 239.94C596.84 239.97 596.94 240.03 597.04 240.1C597.13 240.17 597.21 240.26 597.26 240.36C597.32 240.46 597.36 240.57 597.38 240.69C597.68 241.89 597.98 243.1 598.28 244.31C598.3 244.38 598.3 244.45 598.32 244.54Z" />
				<path id="Layer" class="shp5" d="M579.13 239.93L583.96 239.93L583.96 244.53L578.56 244.53C578.75 243 578.94 241.48 579.13 239.93Z" />
				<path id="Layer" class="shp5" d="M585.73 244.54L585.73 239.93L590.56 239.93L591.13 244.54L585.73 244.54Z" />
				<path id="Layer" class="shp5" d="M580.3 229.81L579.12 230.97C578.78 230.66 578.36 230.31 577.99 229.91C577.93 229.82 577.88 229.73 577.85 229.63C577.82 229.53 577.81 229.43 577.82 229.32C577.83 229.22 577.86 229.12 577.91 229.02C577.96 228.93 578.02 228.85 578.1 228.78C578.18 228.71 578.27 228.65 578.37 228.61C578.47 228.57 578.57 228.55 578.68 228.54C578.79 228.54 578.89 228.56 578.99 228.6C579.09 228.64 579.18 228.69 579.26 228.77C579.64 229.11 579.98 229.49 580.3 229.81Z" />
				<path id="Layer" class="shp5" d="M590.6 231.02L589.4 229.8C589.7 229.5 590.05 229.12 590.42 228.77C590.5 228.7 590.6 228.64 590.7 228.6C590.8 228.56 590.91 228.55 591.02 228.55C591.13 228.55 591.23 228.57 591.33 228.62C591.44 228.66 591.53 228.72 591.6 228.8C591.68 228.88 591.75 228.97 591.79 229.07C591.84 229.17 591.86 229.28 591.87 229.39C591.87 229.5 591.85 229.61 591.81 229.72C591.77 229.82 591.71 229.92 591.63 230C591.3 230.37 590.92 230.71 590.6 231.02Z" />
				<path id="Layer" class="shp5" d="M592.07 236.43L592.07 234.72C592.61 234.72 593.17 234.68 593.72 234.73C593.82 234.74 593.91 234.78 594 234.83C594.09 234.88 594.17 234.95 594.23 235.03C594.3 235.1 594.35 235.2 594.38 235.29C594.41 235.39 594.42 235.49 594.42 235.59C594.42 235.69 594.4 235.79 594.36 235.89C594.33 235.98 594.28 236.06 594.21 236.14C594.15 236.21 594.07 236.28 593.98 236.32C593.89 236.37 593.8 236.4 593.7 236.42C593.15 236.46 592.61 236.43 592.07 236.43Z" />
				<path id="Layer" class="shp5" d="M577.62 234.71L577.62 236.41C577.08 236.41 576.51 236.46 575.95 236.4C575.85 236.38 575.75 236.35 575.67 236.3C575.58 236.24 575.5 236.17 575.44 236.09C575.38 236.01 575.33 235.92 575.31 235.82C575.28 235.72 575.27 235.62 575.28 235.52C575.28 235.42 575.3 235.32 575.34 235.23C575.38 235.14 575.43 235.06 575.5 234.98C575.57 234.91 575.65 234.85 575.74 234.81C575.82 234.76 575.92 234.73 576.02 234.72C576.55 234.68 577.09 234.71 577.62 234.71Z" />
			</g>
		</g>
		<g id="Layer">
			<path id="Layer" class="shp5" d="M422.58 78.86C422.61 78.75 422.67 78.65 422.74 78.56C422.81 78.47 422.9 78.4 423 78.33C423.09 78.27 423.2 78.23 423.31 78.21C423.42 78.18 423.54 78.18 423.65 78.19C432.56 78.2 441.46 78.2 450.35 78.2C451.11 78.2 451.42 78.5 451.42 79.25C451.42 80.09 451.42 80.94 451.42 81.82L422.97 81.82C422.84 81.82 422.71 81.84 422.57 81.85L422.58 78.86Z" />
			<path id="Layer" class="shp5" d="M426.41 103.42C426.25 103.39 426.1 103.36 425.95 103.32C425.8 103.27 425.65 103.22 425.51 103.16C425.36 103.1 425.22 103.03 425.08 102.96C424.95 102.88 424.81 102.8 424.69 102.7C424.47 102.55 424.28 102.38 424.1 102.18C423.93 101.98 423.78 101.76 423.65 101.53C423.53 101.29 423.44 101.05 423.37 100.79C423.31 100.54 423.27 100.27 423.27 100.01C423.24 96.32 423.26 92.64 423.26 88.95C423.26 88.94 423.26 88.93 423.26 88.92C423.26 88.92 423.26 88.91 423.27 88.9C423.27 88.89 423.27 88.88 423.27 88.87C423.27 88.87 423.27 88.86 423.28 88.85L430.38 88.85L430.38 89.19C430.38 92.67 430.38 96.15 430.38 99.63C430.41 100.07 430.36 100.52 430.22 100.94C430.09 101.37 429.88 101.76 429.59 102.11C429.31 102.45 428.97 102.74 428.58 102.96C428.19 103.18 427.77 103.32 427.33 103.38C427.32 103.39 427.31 103.39 427.31 103.39C427.3 103.39 427.3 103.4 427.29 103.4C427.28 103.4 427.28 103.41 427.27 103.41C427.27 103.41 427.26 103.42 427.25 103.42L426.41 103.42Z" />
			<path id="Layer" class="shp5" d="M446.75 103.42C446.61 103.4 446.47 103.36 446.34 103.33C446.2 103.29 446.07 103.24 445.94 103.19C445.81 103.14 445.68 103.08 445.56 103.02C445.43 102.96 445.31 102.89 445.19 102.81C444.95 102.65 444.72 102.46 444.53 102.25C444.33 102.03 444.16 101.79 444.03 101.53C443.89 101.28 443.79 101 443.72 100.72C443.65 100.44 443.62 100.14 443.62 99.85C443.61 96.25 443.62 92.65 443.62 89.04C443.62 89.03 443.62 89.01 443.62 88.99C443.63 88.98 443.63 88.96 443.63 88.94C443.63 88.93 443.63 88.91 443.63 88.89C443.64 88.88 443.64 88.86 443.64 88.84L450.74 88.84L450.74 89.15C450.74 92.67 450.74 96.19 450.74 99.71C450.76 100.14 450.7 100.58 450.56 101C450.42 101.41 450.21 101.8 449.93 102.13C449.65 102.47 449.31 102.75 448.93 102.97C448.55 103.18 448.13 103.32 447.7 103.38C447.69 103.39 447.68 103.39 447.67 103.39C447.66 103.4 447.65 103.4 447.64 103.4C447.64 103.41 447.63 103.41 447.62 103.41C447.61 103.42 447.6 103.42 447.6 103.43L446.75 103.42Z" />
			<path id="Layer" class="shp5" d="M436.55 103.42C436.45 103.39 436.36 103.37 436.26 103.34C436.16 103.31 436.07 103.28 435.97 103.25C435.88 103.21 435.79 103.18 435.69 103.14C435.6 103.11 435.51 103.07 435.41 103.03C435.12 102.9 434.85 102.73 434.61 102.52C434.37 102.31 434.15 102.07 433.98 101.8C433.81 101.53 433.67 101.23 433.59 100.92C433.5 100.62 433.45 100.3 433.46 99.98C433.42 96.32 433.44 92.66 433.44 89C433.44 88.95 433.45 88.91 433.45 88.84L440.55 88.84L440.55 89.17C440.55 92.66 440.52 96.15 440.57 99.64C440.59 100.08 440.53 100.52 440.39 100.94C440.25 101.36 440.04 101.75 439.76 102.09C439.48 102.43 439.14 102.72 438.76 102.94C438.38 103.16 437.96 103.31 437.52 103.38C437.49 103.38 437.47 103.41 437.45 103.42L436.55 103.42Z" />
			<path id="Layer" class="shp5" d="M422.58 83.54C422.67 83.53 422.76 83.51 422.86 83.51L431.07 83.51L431.07 84.53C431.07 85.07 431.07 85.61 431.07 86.16C431.09 86.29 431.07 86.42 431.03 86.55C430.99 86.68 430.91 86.79 430.82 86.88C430.73 86.98 430.61 87.05 430.49 87.09C430.36 87.14 430.23 87.15 430.1 87.13C427.95 87.13 425.8 87.13 423.65 87.14C423.54 87.15 423.42 87.15 423.31 87.12C423.2 87.1 423.09 87.06 422.99 86.99C422.9 86.93 422.81 86.86 422.74 86.77C422.67 86.68 422.61 86.57 422.58 86.47L422.58 83.54Z" />
			<path id="Layer" class="shp5" d="M449.51 76.5L424.5 76.5C424.54 76.39 424.56 76.3 424.6 76.21C424.7 75.96 424.83 75.73 425 75.53C425.17 75.33 425.37 75.15 425.59 75.01C425.81 74.86 426.05 74.75 426.3 74.68C426.56 74.61 426.82 74.58 427.08 74.59C429.87 74.57 432.66 74.59 435.45 74.59C439.26 74.59 443.07 74.59 446.88 74.59C447.14 74.58 447.4 74.61 447.65 74.67C447.9 74.74 448.14 74.84 448.36 74.98C448.58 75.12 448.78 75.28 448.95 75.48C449.12 75.67 449.26 75.89 449.36 76.13C449.42 76.23 449.45 76.35 449.51 76.5Z" />
			<path id="Layer" class="shp5" d="M451.42 83.53C451.42 84.49 451.43 85.42 451.41 86.34C451.41 86.46 451.38 86.57 451.33 86.67C451.28 86.77 451.21 86.86 451.12 86.94C451.04 87.01 450.94 87.07 450.83 87.1C450.72 87.13 450.6 87.15 450.49 87.13C448.99 87.13 447.49 87.13 445.99 87.13C445.29 87.13 444.59 87.13 443.88 87.13C443.75 87.15 443.63 87.13 443.5 87.09C443.38 87.05 443.27 86.98 443.18 86.89C443.09 86.8 443.02 86.69 442.98 86.57C442.94 86.45 442.92 86.32 442.93 86.19C442.93 85.38 442.93 84.56 442.93 83.74C442.93 83.68 442.94 83.62 442.95 83.53L451.42 83.53Z" />
			<path id="Layer" class="shp5" d="M432.77 83.53L441.24 83.53L441.24 84.58C441.24 85.12 441.24 85.67 441.24 86.21C441.25 86.34 441.23 86.46 441.19 86.58C441.15 86.69 441.09 86.8 441 86.88C440.91 86.97 440.81 87.04 440.69 87.08C440.58 87.13 440.45 87.14 440.33 87.13C438.11 87.14 435.88 87.14 433.66 87.13C433.55 87.14 433.44 87.13 433.34 87.1C433.24 87.07 433.15 87.02 433.06 86.95C432.98 86.88 432.92 86.8 432.87 86.7C432.82 86.61 432.79 86.51 432.78 86.4C432.75 85.45 432.77 84.51 432.77 83.53Z" />
		</g>
		<g id="Layer">
			<path id="Layer" class="shp5" d="M527.8 142C528.1 142.13 528.4 142.27 528.69 142.42C528.98 142.57 529.27 142.72 529.55 142.89C529.84 143.05 530.11 143.22 530.39 143.4C530.66 143.58 530.93 143.76 531.2 143.95C531.84 144.43 532.45 144.94 533.02 145.5C533.59 146.05 534.12 146.65 534.61 147.27C535.1 147.9 535.54 148.57 535.94 149.26C536.33 149.95 536.68 150.66 536.98 151.4C537.02 151.49 537.05 151.58 537.07 151.67C537.08 151.77 537.08 151.86 537.06 151.95C537.04 152.05 537.01 152.14 536.96 152.22C536.92 152.3 536.86 152.38 536.79 152.44C536.72 152.5 536.65 152.55 536.57 152.58C536.49 152.61 536.41 152.64 536.33 152.64C536.24 152.65 536.15 152.64 536.07 152.62C535.99 152.6 535.91 152.56 535.84 152.52C535.79 152.48 535.75 152.44 535.71 152.4C535.67 152.35 535.63 152.31 535.59 152.26C535.56 152.22 535.53 152.17 535.5 152.12C535.47 152.06 535.44 152.01 535.42 151.96C535.04 151.04 534.58 150.15 534.04 149.32C533.49 148.49 532.87 147.71 532.17 146.99C531.48 146.28 530.72 145.64 529.9 145.07C529.09 144.5 528.22 144.01 527.31 143.61C527.23 143.58 527.16 143.54 527.09 143.49C527.03 143.44 526.97 143.39 526.93 143.32C526.88 143.25 526.84 143.18 526.82 143.1C526.79 143.03 526.77 142.95 526.77 142.87C526.77 142.79 526.77 142.72 526.79 142.65C526.8 142.57 526.83 142.5 526.87 142.44C526.9 142.37 526.95 142.31 527 142.26C527.05 142.21 527.11 142.16 527.17 142.12C527.19 142.11 527.21 142.1 527.23 142.09C527.25 142.08 527.27 142.07 527.29 142.06C527.31 142.05 527.33 142.04 527.35 142.03C527.38 142.02 527.4 142.01 527.42 142L527.8 142Z" />
			<path id="Layer" fill-rule="evenodd" class="shp5" d="M537.17 160.08C537.17 160.93 537.17 161.78 537.17 162.63C537.18 163.53 537.03 164.42 536.73 165.27C536.42 166.12 535.98 166.91 535.4 167.61C534.83 168.3 534.14 168.89 533.36 169.35C532.59 169.81 531.74 170.13 530.85 170.3C530.64 170.33 530.44 170.34 530.23 170.33C530.02 170.33 529.81 170.31 529.61 170.28C529.4 170.24 529.2 170.19 529.01 170.13C528.81 170.07 528.62 169.99 528.43 169.9C527.7 169.62 527.02 169.24 526.41 168.75C525.79 168.27 525.26 167.7 524.82 167.06C524.38 166.42 524.04 165.71 523.81 164.97C523.58 164.22 523.46 163.45 523.46 162.67C523.44 160.79 523.46 158.92 523.46 157.04C523.45 156.94 523.46 156.84 523.48 156.73C523.51 156.63 523.55 156.54 523.62 156.45C523.68 156.37 523.75 156.29 523.84 156.24C523.93 156.18 524.03 156.14 524.13 156.12C526.06 155.43 527.99 154.75 529.91 154.06C529.98 154.03 530.05 154.02 530.12 154C530.19 153.99 530.26 153.98 530.33 153.98C530.4 153.98 530.47 153.99 530.54 154C530.61 154.02 530.68 154.03 530.74 154.06C532.66 154.75 534.58 155.42 536.5 156.11C536.61 156.13 536.71 156.17 536.8 156.23C536.89 156.29 536.97 156.37 537.04 156.46C537.1 156.55 537.14 156.65 537.17 156.76C537.19 156.86 537.2 156.97 537.18 157.08C537.18 158.08 537.18 159.08 537.17 160.08ZM530.19 162.42C529.94 162.16 529.73 161.92 529.5 161.69C529.35 161.52 529.13 161.42 528.91 161.42C528.68 161.41 528.46 161.5 528.3 161.66C528.14 161.82 528.05 162.04 528.06 162.27C528.06 162.49 528.16 162.71 528.32 162.86C528.74 163.29 529.17 163.71 529.6 164.13C529.67 164.22 529.77 164.28 529.87 164.33C529.97 164.38 530.09 164.4 530.2 164.4C530.32 164.4 530.43 164.38 530.53 164.33C530.64 164.28 530.73 164.22 530.81 164.13C531.61 163.33 532.41 162.53 533.21 161.72C533.24 161.69 533.26 161.66 533.29 161.62C533.31 161.59 533.34 161.55 533.36 161.51C533.38 161.47 533.4 161.44 533.41 161.39C533.43 161.35 533.44 161.31 533.45 161.27C533.47 161.19 533.47 161.1 533.47 161.01C533.46 160.92 533.43 160.84 533.4 160.76C533.36 160.68 533.31 160.6 533.25 160.54C533.18 160.48 533.11 160.43 533.03 160.39C532.95 160.34 532.87 160.31 532.78 160.3C532.69 160.28 532.6 160.28 532.51 160.3C532.42 160.31 532.33 160.34 532.26 160.38C532.18 160.43 532.1 160.48 532.04 160.55C531.44 161.16 530.84 161.77 530.19 162.42L530.19 162.42Z" />
			<path id="Layer" class="shp5" d="M534.41 153.6C533.73 153.36 533.09 153.14 532.46 152.91C532.37 152.87 532.31 152.74 532.26 152.63C531.41 150.81 530.13 149.22 528.52 148C526.92 146.77 525.04 145.96 523.06 145.63C521.07 145.3 519.03 145.45 517.12 146.08C515.2 146.71 513.47 147.79 512.07 149.24C512.01 149.3 511.96 149.36 511.9 149.43C511.83 149.5 511.77 149.59 511.73 149.68C511.69 149.78 511.67 149.88 511.67 149.98C511.67 150.09 511.69 150.19 511.73 150.29C511.77 150.38 511.83 150.47 511.91 150.54C511.98 150.62 512.08 150.68 512.18 150.72C512.28 150.77 512.38 150.79 512.49 150.79C512.6 150.79 512.71 150.77 512.81 150.72C512.91 150.68 513 150.62 513.08 150.54C513.2 150.42 513.33 150.29 513.45 150.17C513.58 150.05 513.71 149.94 513.84 149.82C513.97 149.7 514.11 149.59 514.24 149.47C514.37 149.36 514.51 149.25 514.65 149.14C515.84 148.26 517.2 147.63 518.64 147.3C520.09 146.98 521.59 146.95 523.04 147.23C524.5 147.51 525.88 148.09 527.1 148.94C528.32 149.78 529.35 150.86 530.13 152.13C530.16 152.17 530.18 152.23 530.19 152.25C529.72 152.4 529.26 152.54 528.81 152.7C528.77 152.72 528.74 152.73 528.7 152.73C528.66 152.74 528.62 152.73 528.59 152.72C528.55 152.71 528.52 152.69 528.49 152.66C528.46 152.64 528.44 152.61 528.43 152.57C528.16 152.19 527.87 151.83 527.55 151.49C527.23 151.15 526.89 150.84 526.52 150.56C526.15 150.28 525.76 150.03 525.35 149.81C524.94 149.59 524.51 149.4 524.07 149.25C523.26 148.95 522.42 148.77 521.56 148.71C520.69 148.65 519.83 148.72 518.99 148.91C518.15 149.1 517.34 149.42 516.59 149.84C515.84 150.27 515.15 150.8 514.55 151.42C514.44 151.55 514.32 151.67 514.19 151.78C514.05 151.89 513.91 151.99 513.76 152.08C513.61 152.17 513.46 152.24 513.3 152.3C513.14 152.36 512.97 152.41 512.8 152.44C512.56 152.46 512.31 152.45 512.07 152.41C511.83 152.36 511.6 152.29 511.38 152.17C511.16 152.06 510.96 151.92 510.78 151.76C510.6 151.59 510.45 151.4 510.33 151.19C510.2 150.97 510.11 150.74 510.06 150.51C510.01 150.27 509.99 150.02 510.01 149.78C510.03 149.53 510.09 149.29 510.19 149.07C510.28 148.84 510.41 148.63 510.57 148.44C510.83 148.14 511.11 147.85 511.4 147.58C511.69 147.3 511.99 147.04 512.3 146.79C512.62 146.54 512.94 146.31 513.27 146.09C513.61 145.87 513.95 145.67 514.3 145.48C516.1 144.51 518.09 143.94 520.12 143.81C522.16 143.68 524.2 144 526.11 144.74C528.01 145.48 529.73 146.63 531.14 148.1C532.56 149.57 533.64 151.33 534.3 153.26C534.33 153.35 534.36 153.45 534.41 153.6Z" />
			<path id="Layer" class="shp5" d="M526.94 153.35C526.41 153.54 525.92 153.73 525.42 153.89C525.39 153.89 525.36 153.89 525.34 153.88C525.31 153.88 525.28 153.87 525.26 153.86C525.23 153.85 525.21 153.83 525.19 153.82C525.16 153.8 525.14 153.79 525.12 153.77C524.91 153.55 524.68 153.35 524.43 153.17C524.19 152.99 523.93 152.83 523.66 152.69C523.39 152.54 523.11 152.42 522.82 152.33C522.53 152.23 522.24 152.15 521.94 152.1C521.2 151.98 520.45 152.01 519.73 152.17C519 152.34 518.31 152.64 517.7 153.07C517.09 153.5 516.57 154.04 516.17 154.66C515.76 155.28 515.48 155.98 515.34 156.71C515.32 156.83 515.3 156.95 515.29 157.07C515.28 157.19 515.27 157.31 515.26 157.43C515.25 157.55 515.24 157.66 515.24 157.78C515.23 157.9 515.23 158.02 515.23 158.14C515.22 159.25 515.23 160.36 515.23 161.47C515.24 161.55 515.23 161.64 515.21 161.72C515.18 161.8 515.15 161.88 515.1 161.95C515.06 162.03 515 162.09 514.93 162.14C514.86 162.2 514.79 162.24 514.71 162.27C514.64 162.31 514.56 162.33 514.48 162.34C514.4 162.35 514.31 162.34 514.24 162.33C514.16 162.31 514.08 162.28 514.01 162.24C513.94 162.2 513.88 162.14 513.82 162.08C513.79 162.04 513.76 162 513.73 161.96C513.7 161.91 513.68 161.87 513.66 161.82C513.64 161.77 513.62 161.72 513.61 161.67C513.6 161.62 513.59 161.57 513.58 161.52C513.57 160.05 513.53 158.58 513.62 157.12C513.75 155.64 514.33 154.23 515.27 153.08C516.21 151.94 517.47 151.1 518.89 150.67C520.31 150.25 521.83 150.26 523.24 150.71C524.66 151.16 525.9 152.02 526.82 153.19C526.85 153.23 526.88 153.28 526.94 153.35Z" />
			<path id="Layer" class="shp5" d="M523.45 154.58C523.31 154.63 523.18 154.7 523.06 154.77C522.93 154.84 522.81 154.93 522.7 155.02C522.59 155.11 522.48 155.22 522.39 155.33C522.3 155.44 522.21 155.56 522.14 155.68C522 155.61 521.86 155.56 521.72 155.51C521.57 155.47 521.42 155.44 521.27 155.42C521.12 155.41 520.97 155.41 520.82 155.42C520.67 155.43 520.52 155.45 520.38 155.49C520.11 155.56 519.86 155.67 519.64 155.83C519.41 155.98 519.21 156.17 519.05 156.39C518.88 156.6 518.76 156.85 518.67 157.11C518.59 157.37 518.55 157.64 518.56 157.91C518.55 160.04 518.56 162.16 518.56 164.28C518.56 165.39 518.56 166.5 518.56 167.61C518.56 167.71 518.54 167.81 518.5 167.91C518.47 168 518.41 168.09 518.34 168.16C518.27 168.24 518.19 168.3 518.1 168.35C518.01 168.39 517.91 168.42 517.81 168.43C517.71 168.44 517.6 168.43 517.51 168.4C517.41 168.37 517.32 168.32 517.24 168.26C517.16 168.2 517.09 168.12 517.03 168.04C516.98 167.95 516.94 167.86 516.92 167.76C516.92 167.73 516.91 167.7 516.91 167.68C516.91 167.65 516.9 167.62 516.9 167.59C516.9 167.57 516.9 167.54 516.9 167.51C516.9 167.48 516.9 167.45 516.9 167.43C516.9 166.17 516.9 164.92 516.9 163.66C516.9 161.73 516.89 159.8 516.9 157.87C516.9 157.4 516.97 156.93 517.13 156.49C517.29 156.04 517.52 155.63 517.82 155.26C518.12 154.89 518.48 154.58 518.88 154.34C519.28 154.1 519.73 153.92 520.19 153.83C520.45 153.78 520.72 153.75 520.99 153.74C521.26 153.74 521.53 153.77 521.8 153.82C522.06 153.87 522.32 153.95 522.57 154.06C522.82 154.16 523.06 154.29 523.28 154.45C523.33 154.48 523.37 154.52 523.45 154.58Z" />
			<path id="Layer" class="shp5" d="M521.82 161.78C521.82 163.19 521.82 164.6 521.82 166.01C521.83 166.16 521.8 166.3 521.73 166.43C521.67 166.56 521.57 166.67 521.44 166.75C521.32 166.83 521.18 166.87 521.03 166.88C520.88 166.88 520.74 166.85 520.61 166.78C520.54 166.74 520.47 166.68 520.41 166.62C520.35 166.56 520.3 166.49 520.26 166.42C520.22 166.34 520.19 166.26 520.17 166.18C520.16 166.09 520.15 166.01 520.16 165.92C520.16 163.61 520.16 161.29 520.16 158.98C520.16 158.51 520.16 158.05 520.16 157.59C520.15 157.48 520.17 157.36 520.21 157.25C520.25 157.14 520.31 157.04 520.39 156.96C520.46 156.87 520.56 156.8 520.66 156.76C520.77 156.71 520.88 156.69 521 156.68C521.12 156.69 521.23 156.71 521.34 156.76C521.44 156.81 521.54 156.87 521.61 156.96C521.69 157.05 521.75 157.15 521.79 157.26C521.82 157.37 521.83 157.48 521.82 157.6C521.83 158.99 521.83 160.39 521.82 161.78Z" />
		</g>
		<g id="Layer">
			<g id="Layer">
				<path id="Layer" class="shp2" d="M314.5 117C283.81 117 259 92.19 259 61.5C259 30.81 283.81 6 314.5 6C345.19 6 370 30.81 370 61.5C370 92.19 345.19 117 314.5 117Z" />
				<path id="Layer" class="shp3" d="M314.5 116.5C284.08 116.5 259.5 91.92 259.5 61.5C259.5 31.08 284.08 6.5 314.5 6.5C344.92 6.5 369.5 31.08 369.5 61.5C369.5 91.92 344.92 116.5 314.5 116.5Z" />
			</g>
		</g>
		<path id="Layer" class="shp4" d="M315 111C287.35 111 265 88.87 265 61.5C265 34.13 287.35 12 315 12C342.65 12 365 34.13 365 61.5C365 88.87 342.65 111 315 111Z" />
		<path id="Layer" class="shp4" d="M314 123L293 89L335 89L314 123Z" />
		<g id="Layer">
			<path id="Layer" class="shp6" d="M315 104C291.22 104 272 85 272 61.5C272 38 291.22 19 315 19C338.78 19 358 38 358 61.5C358 85 338.78 104 315 104Z" />
		</g>
		<g id="Layer">
			<path id="Layer" class="shp4" d="M294.7 85L294.7 73.81L303.53 73.81C303.26 73.29 303.06 72.74 302.92 72.17C302.79 71.6 302.72 71.02 302.72 70.43C302.72 69.85 302.78 69.27 302.92 68.7C303.05 68.13 303.25 67.58 303.52 67.05L294.72 67.05L294.72 63.58C300.43 63.33 304.04 60.46 305.58 54.91L311.77 57.47C311 59.33 310.24 61.17 309.45 63.08C310.04 63.05 310.62 63.07 311.2 63.17C311.77 63.27 312.33 63.43 312.87 63.65C313.41 63.88 313.92 64.16 314.39 64.51C314.86 64.85 315.29 65.24 315.67 65.68C316.46 63.78 317.23 61.94 318.01 60.06L329.89 64.98L331.96 60L301.95 47.57C301.26 49.23 300.58 50.87 299.89 52.55L302.93 53.82C302.82 54.81 302.52 55.77 302.05 56.64C301.59 57.52 300.96 58.3 300.2 58.95C299.44 59.59 298.57 60.08 297.62 60.4C296.68 60.72 295.69 60.86 294.7 60.8L294.7 53.38L292 53.38L292 85.01L294.7 85Z" />
			<path id="Layer" class="shp4" d="M305.48 39C304.71 40.87 303.95 42.73 303.18 44.6C303.12 44.75 303.07 44.9 303 45.08L335.46 58.53C335.54 58.38 335.61 58.24 335.66 58.09C336.38 56.38 337.09 54.67 337.8 52.96C337.85 52.83 337.93 52.7 338 52.57L338 52.48C337.86 52.42 337.73 52.36 337.59 52.3C328.84 48.67 320.1 45.05 311.35 41.43C309.42 40.63 307.49 39.81 305.57 39L305.48 39Z" />
			<path id="Layer" class="shp4" d="M305.4 70.36C305.37 72.25 306.48 73.97 308.22 74.72C309.96 75.46 311.98 75.08 313.33 73.75C314.67 72.43 315.08 70.42 314.37 68.67C313.65 66.92 311.94 65.77 310.05 65.78C309.45 65.78 308.85 65.91 308.29 66.14C307.74 66.37 307.23 66.71 306.8 67.13C306.37 67.55 306.02 68.05 305.78 68.61C305.54 69.16 305.41 69.76 305.4 70.36Z" />
		</g>
		<g id="Layer">
			<g id="Layer">
				<path id="Layer" class="shp7" d="M270 238C270 231.93 273.65 226.46 279.26 224.14C284.86 221.82 291.32 223.1 295.61 227.39C299.9 231.68 301.18 238.14 298.86 243.74C296.54 249.35 291.07 253 285 253C283.03 253 281.08 252.61 279.26 251.86C277.44 251.1 275.79 250 274.39 248.61C273 247.21 271.9 245.56 271.14 243.74C270.39 241.92 270 239.97 270 238L270 238Z" />
				<g id="Layer">
					<path id="Layer" class="shp8" d="M285 234.26L281.26 238L285 241.74" />
					<path id="Layer" class="shp8" d="M288.74 238L281.26 238" />
				</g>
			</g>
			<g id="Layer">
				<path id="Layer" class="shp7" d="M358 238C358 231.93 354.35 226.46 348.74 224.14C343.14 221.82 336.68 223.1 332.39 227.39C328.1 231.68 326.82 238.14 329.14 243.74C331.46 249.35 336.93 253 343 253C344.97 253 346.92 252.61 348.74 251.86C350.56 251.1 352.21 250 353.61 248.61C355 247.21 356.1 245.56 356.86 243.74C357.61 241.92 358 239.97 358 238L358 238Z" />
				<g id="Layer">
					<path id="Layer" class="shp8" d="M343 234.26L346.74 238L343 241.74" />
					<path id="Layer" class="shp8" d="M339.26 238L346.74 238" />
				</g>
			</g>
		</g>
	</g>
</svg>