<svg xmlns="http://www.w3.org/2000/svg" xmlns:xlink="http://www.w3.org/1999/xlink" width="628" height="287" viewBox="0 0 628 287"><defs><style>.a,.c,.h,.i,.k{fill:none;}.a,.c,.h,.i{stroke:#fff;}.a,.c{stroke-miterlimit:10;}.a{opacity:0.42;}.b,.e{fill:#fff;}.b{font-size:16px;font-family:LibreFranklin-Bold, Libre Franklin;font-weight:700;}.c{stroke-width:4px;opacity:0.21;}.d{fill:#357cae;stroke:rgba(255,255,255,0.18);}.f{fill:#3a3a3a;}.g{fill:#4a2e18;}.h,.i{stroke-linecap:round;stroke-linejoin:round;}.i{stroke-width:2px;}.j{stroke:none;}.l{filter:url(#o);}.m{filter:url(#m);}.n{filter:url(#k);}.o{filter:url(#i);}.p{filter:url(#g);}.q{filter:url(#e);}.r{filter:url(#c);}.s{filter:url(#a);}</style><filter id="a" x="61" y="116" width="86" height="86" filterUnits="userSpaceOnUse"><feOffset dy="3" input="SourceAlpha"/><feGaussianBlur stdDeviation="3" result="b"/><feFlood flood-opacity="0.161"/><feComposite operator="in" in2="b"/><feComposite in="SourceGraphic"/></filter><filter id="c" x="481" y="116" width="86" height="86" filterUnits="userSpaceOnUse"><feOffset dy="3" input="SourceAlpha"/><feGaussianBlur stdDeviation="3" result="d"/><feFlood flood-opacity="0.161"/><feComposite operator="in" in2="d"/><feComposite in="SourceGraphic"/></filter><filter id="e" x="148" y="51" width="86" height="86" filterUnits="userSpaceOnUse"><feOffset dy="3" input="SourceAlpha"/><feGaussianBlur stdDeviation="3" result="f"/><feFlood flood-opacity="0.161"/><feComposite operator="in" in2="f"/><feComposite in="SourceGraphic"/></filter><filter id="g" x="394" y="51" width="86" height="86" filterUnits="userSpaceOnUse"><feOffset dy="3" input="SourceAlpha"/><feGaussianBlur stdDeviation="3" result="h"/><feFlood flood-opacity="0.161"/><feComposite operator="in" in2="h"/><feComposite in="SourceGraphic"/></filter><filter id="i" x="0" y="201" width="86" height="86" filterUnits="userSpaceOnUse"><feOffset dy="3" input="SourceAlpha"/><feGaussianBlur stdDeviation="3" result="j"/><feFlood flood-opacity="0.161"/><feComposite operator="in" in2="j"/><feComposite in="SourceGraphic"/></filter><filter id="k" x="542" y="201" width="86" height="86" filterUnits="userSpaceOnUse"><feOffset dy="3" input="SourceAlpha"/><feGaussianBlur stdDeviation="3" result="l"/><feFlood flood-opacity="0.161"/><feComposite operator="in" in2="l"/><feComposite in="SourceGraphic"/></filter><filter id="m" x="250" y="0" width="129" height="129" filterUnits="userSpaceOnUse"><feOffset dy="3" input="SourceAlpha"/><feGaussianBlur stdDeviation="3" result="n"/><feFlood flood-opacity="0.161"/><feComposite operator="in" in2="n"/><feComposite in="SourceGraphic"/></filter><filter id="o" x="263" y="13" width="104" height="103" filterUnits="userSpaceOnUse"><feOffset dy="3" input="SourceAlpha"/><feGaussianBlur stdDeviation="3" result="p"/><feFlood flood-opacity="0.588"/><feComposite operator="in" in2="p"/><feComposite in="SourceGraphic"/></filter></defs><g transform="translate(-2398 -1708)"><path class="a" d="M1469.2,424.114c-50.594-102.325-154.276-172.481-273.976-172.481S971.845,321.789,921.251,424.114" transform="translate(1516.943 1517.867)"/><text class="b" transform="translate(2615 1859)"><tspan x="-96.264" y="15">Live camera feed from all </tspan><tspan x="-56.32" y="40">common areas</tspan></text><path class="c" d="M1454.591,417.8c-49.245-98.582-150.162-166.171-266.67-166.171S970.5,319.222,921.251,417.8" transform="translate(1524.249 1524.177)"/><g class="s" transform="matrix(1, 0, 0, 1, 2398, 1708)"><g class="d" transform="translate(70 122)"><circle class="j" cx="34" cy="34" r="34"/><circle class="k" cx="34" cy="34" r="33.5"/></g></g><g class="r" transform="matrix(1, 0, 0, 1, 2398, 1708)"><g class="d" transform="translate(490 122)"><circle class="j" cx="34" cy="34" r="34"/><circle class="k" cx="34" cy="34" r="33.5"/></g></g><g class="q" transform="matrix(1, 0, 0, 1, 2398, 1708)"><g class="d" transform="translate(157 57)"><circle class="j" cx="34" cy="34" r="34"/><circle class="k" cx="34" cy="34" r="33.5"/></g></g><g class="p" transform="matrix(1, 0, 0, 1, 2398, 1708)"><g class="d" transform="translate(403 57)"><circle class="j" cx="34" cy="34" r="34"/><circle class="k" cx="34" cy="34" r="33.5"/></g></g><circle class="e" cx="30" cy="30" r="30" transform="translate(2472 1834)"/><circle class="e" cx="30" cy="30" r="30" transform="translate(2892 1834)"/><circle class="e" cx="30" cy="30" r="30" transform="translate(2805 1769)"/><circle class="e" cx="30" cy="30" r="30" transform="translate(2559 1769)"/><g class="o" transform="matrix(1, 0, 0, 1, 2398, 1708)"><g class="d" transform="translate(9 207)"><circle class="j" cx="34" cy="34" r="34"/><circle class="k" cx="34" cy="34" r="33.5"/></g></g><g class="n" transform="matrix(1, 0, 0, 1, 2398, 1708)"><g class="d" transform="translate(551 207)"><circle class="j" cx="34" cy="34" r="34"/><circle class="k" cx="34" cy="34" r="33.5"/></g></g><circle class="e" cx="30" cy="30" r="30" transform="translate(2411 1919)"/><circle class="e" cx="30" cy="30" r="30" transform="translate(2953 1919)"/><g transform="translate(2575.209 1782.579)"><path class="f" d="M2446.785-458.6c.087.678.164,1.358.265,2.033.1.7.114.7.808.843a10.989,10.989,0,0,1,4.078,1.732.59.59,0,0,0,.84-.016c.6-.444,1.19-.89,1.762-1.318l1.61,1.586-1.293,1.724c-.3.4-.3.526-.025.929a11.023,11.023,0,0,1,1.75,4.219c.083.434.2.54.649.6.725.1,1.45.2,2.186.308v2.254l-1.479.221c-.277.041-.555.082-.833.117a.534.534,0,0,0-.507.474,11.022,11.022,0,0,1-1.8,4.411.556.556,0,0,0,.023.766c.45.6.9,1.2,1.342,1.786l-1.6,1.6c-.478-.357-.99-.734-1.494-1.122a.423.423,0,0,1-.113-.223c-.205-.783-.4-1.57-.61-2.351a.54.54,0,0,0-.979-.229c-.4.433-.787.878-1.187,1.31a1.432,1.432,0,0,1-1.114.533.9.9,0,0,1-.83-.491c-.149-.29-.109-.372.186-.491a7.831,7.831,0,0,0,4.952-5.644,7.924,7.924,0,0,0-6.616-9.66,7.929,7.929,0,0,0-9,6.727,7.747,7.747,0,0,0,2.145,6.649,1.092,1.092,0,0,0,.174.138c-.417.769-.818,1.48-1.189,2.207a4.209,4.209,0,0,0-.363.973,1.154,1.154,0,0,1-.522.721c-.441.311-.867.645-1.274.95l-1.6-1.6,1.274-1.7c.3-.4.3-.528.026-.93a10.968,10.968,0,0,1-1.756-4.247c-.075-.394-.181-.5-.586-.559-.65-.1-1.3-.187-1.951-.281-.094-.014-.188-.035-.292-.055v-2.243l1.65-.249c.229-.035.458-.072.688-.106a.529.529,0,0,0,.478-.471,10.89,10.89,0,0,1,1.821-4.4.54.54,0,0,0-.022-.764c-.45-.6-.9-1.2-1.336-1.779l1.6-1.607c.573.431,1.18.891,1.791,1.347a.552.552,0,0,0,.767.023,11.138,11.138,0,0,1,4.3-1.8c.459-.088.551-.2.613-.669q.143-1.089.285-2.177Zm-11.25,13.51c0,.068,0,.135,0,.2a.551.551,0,0,0,.514.59.544.544,0,0,0,.551-.552c.008-.086,0-.175.01-.26a14.76,14.76,0,0,1,.3-2.026,8.834,8.834,0,0,1,6.463-6.415,1.031,1.031,0,0,0,.473-.288.435.435,0,0,0-.025-.564.578.578,0,0,0-.68-.171A10.027,10.027,0,0,0,2435.536-445.087Zm10.613-9.264a.528.528,0,0,0-.523-.536.527.527,0,0,0-.526.532.515.515,0,0,0,.509.516A.517.517,0,0,0,2446.149-454.351Z" transform="translate(-2431.833 458.597)"/><path class="f" d="M2543.188-270.834a6.206,6.206,0,0,1,.263,4,4.911,4.911,0,0,1-2.835,3.148,8.228,8.228,0,0,1-6.3.328,4.861,4.861,0,0,1-3.1-6.268,10.7,10.7,0,0,1,3.321-4.794c.238-.212.478-.424.7-.647a4.093,4.093,0,0,0,1.227-2.853c.016-.372,0-.746,0-1.145.077.027.108.029.125.045.753.763,1.521,1.514,2.249,2.3a4.987,4.987,0,0,1,.714,1.049,2.5,2.5,0,0,1-.117,2.688,5.941,5.941,0,0,0-.472.861,1.844,1.844,0,0,0,.283,2.132,2.032,2.032,0,0,0,2.182.55,2.647,2.647,0,0,0,1.266-.833Zm-11.224,2.819c.043.293.066.612.14.919a3.581,3.581,0,0,0,1.638,2.292,5.846,5.846,0,0,0,3.324.819.5.5,0,0,0,.455-.516.527.527,0,0,0-.458-.516c-.1-.018-.212-.01-.317-.024a11.248,11.248,0,0,1-1.371-.2,2.757,2.757,0,0,1-2.283-2.319,5.033,5.033,0,0,1,.038-1.147.535.535,0,0,0-.42-.649.523.523,0,0,0-.626.457C2532.027-268.618,2532-268.329,2531.963-268.015Z" transform="translate(-2523.5 292.577)"/></g><g transform="translate(2486.193 1849.155)"><path class="f" d="M4212.194-453.813v-.123l.511-1.661,3.5.811a2.553,2.553,0,0,1,1.38-1.346,1.056,1.056,0,0,0,.741-.794,5.165,5.165,0,0,1,.214-.544c.147-.369.293-.738.447-1.126l1.715.686c-.244.622-.473,1.2-.693,1.764.019.035.021.047.029.053.058.042.116.084.176.122a2.692,2.692,0,0,1,1.224,1.745c.043.2.135.244.3.257,1.148.09,2.3.188,3.444.267a.38.38,0,0,0,.289-.178,2.984,2.984,0,0,1,1.329-1.329.523.523,0,0,0,.228-.257c.382-.964.752-1.933,1.127-2.9.028-.073.07-.141.112-.225l1.693.68-1.026,2.594a2.891,2.891,0,0,1,1.606,1.508.267.267,0,0,0,.215.112q1.783-.133,3.565-.292a.31.31,0,0,0,.208-.193,2.821,2.821,0,0,1,1.9-2.1.508.508,0,0,0,.261-.256c.242-.577.465-1.163.7-1.745.04-.1.088-.2.139-.31l1.7.683c-.24.612-.47,1.2-.708,1.808a3,3,0,0,1,1.207,1.19c.028.05.154.076.226.064.385-.068.768-.145,1.147-.233.728-.169,1.452-.348,2.205-.53.166.592.328,1.169.5,1.8-1.214.272-2.394.541-3.577.8a.426.426,0,0,0-.36.308,2.71,2.71,0,0,1-2.092,1.807c-.076.016-.15.047-.235.074a11.708,11.708,0,0,0,.667,3.357.505.505,0,0,0,.471.383,2.41,2.41,0,0,1,1.669,1.01.576.576,0,0,0,.753.259c.72-.2,1.45-.355,2.2-.534.165.591.327,1.169.5,1.785-.9.214-1.769.426-2.639.621a.383.383,0,0,0-.3.28,4.6,4.6,0,0,1-.591,1.1.91.91,0,0,0-.222.77,11.894,11.894,0,0,1-.119,3.837c-.08.409-.091.732.292.976a.382.382,0,0,1,.137.165c.156.369.415.351.748.26.719-.2,1.45-.354,2.2-.533.165.593.326,1.17.5,1.785-.9.214-1.77.426-2.64.621a.343.343,0,0,0-.3.285,2.75,2.75,0,0,1-3.009,2.05.314.314,0,0,0-.359.19c-.4.673-.8,1.341-1.2,2.01-.083.138-.168.274-.26.424l-1.582-.952c.5-.837.98-1.64,1.464-2.44.079-.13.135-.232.015-.381s-.192-.267-.433-.243c-1.524.153-3.05.285-4.577.409a.384.384,0,0,0-.385.259,2.535,2.535,0,0,1-2.157,1.623,1.09,1.09,0,0,0-.982.678c-.343.628-.73,1.231-1.111,1.863l-1.584-.952,1.346-2.25c-.222-.363-.437-.676-.608-1.012a.327.327,0,0,0-.325-.206c-.975-.065-1.948-.148-2.923-.207a.488.488,0,0,0-.345.16,2.741,2.741,0,0,1-2.455,1.028.4.4,0,0,0-.453.243c-.413.711-.84,1.413-1.264,2.118-.051.085-.11.164-.172.254l-1.571-.949c.442-.737.845-1.442,1.282-2.126.212-.333.368-.626.023-.96a.534.534,0,0,1-.121-.247c-.049-.2-.191-.258-.377-.295-.9-.176-1.793-.356-2.686-.549-.621-.134-1.237-.292-1.856-.439v-.123c.171-.555.342-1.109.516-1.672.077.015.137.026.2.039,1.291.293,2.582.588,3.873.875.136.03.275.1.381-.117a2.708,2.708,0,0,1,2.149-1.56c.154-.022.237-.072.248-.24.061-.91.138-1.819.191-2.729a5.442,5.442,0,0,0-.053-.744,2.857,2.857,0,0,1-2.631-1.79.523.523,0,0,0-.333-.2c-.833-.179-1.671-.332-2.5-.512-.681-.147-1.355-.321-2.033-.483v-.124l.513-1.667c.059.007.1.007.138.016,1.29.293,2.583.579,3.87.885a.394.394,0,0,0,.522-.244,3.377,3.377,0,0,1,.611-.763.33.33,0,0,0,.1-.421,13.794,13.794,0,0,1-.807-4.248.556.556,0,0,0-.172-.355,2.813,2.813,0,0,1-.855-1.258.355.355,0,0,0-.317-.274c-.474-.093-.946-.19-1.416-.3C4213.649-453.468,4212.923-453.643,4212.194-453.813Zm15.064,9.365c.038-.076.1-.218.178-.35a1.872,1.872,0,0,1,.26-.38.3.3,0,0,0,.05-.409,13.329,13.329,0,0,1-1.293-4.635.4.4,0,0,0-.129-.253,3.123,3.123,0,0,1-.913-1.186.342.342,0,0,0-.235-.173c-1.271-.112-2.542-.208-3.812-.317a.4.4,0,0,0-.41.182,2.675,2.675,0,0,1-1.677,1.066c-.087.017-.171.049-.259.074a11,11,0,0,0,.727,3.476.46.46,0,0,0,.3.234,2.759,2.759,0,0,1,2.344,2.266.255.255,0,0,0,.283.242c.729.045,1.455.131,2.185.157C4225.644-444.426,4226.435-444.448,4227.259-444.448Zm10.955,2.874a2.861,2.861,0,0,1-2.388-1.308.386.386,0,0,0-.306-.106c-.921.086-1.84.193-2.761.278a.3.3,0,0,0-.309.225,2.661,2.661,0,0,1-1.333,1.511.373.373,0,0,0-.239.4,12.086,12.086,0,0,1-.512,3.927,1.185,1.185,0,0,0,.151,1.291.463.463,0,0,0,.295.174q2.213-.173,4.425-.382a.351.351,0,0,0,.243-.2,2.8,2.8,0,0,1,2.373-2.1.293.293,0,0,0,.206-.161A10.776,10.776,0,0,0,4238.214-441.574Zm-9.671,4.6a11.156,11.156,0,0,0,.478-3.653c0-.081-.129-.19-.222-.232a2.748,2.748,0,0,1-1.454-1.4.412.412,0,0,0-.437-.27q-2.324-.121-4.646-.272a.823.823,0,0,0-.754.754,13.814,13.814,0,0,1-.161,4.477.423.423,0,0,0,.108.339,2.916,2.916,0,0,1,.945,1.654.328.328,0,0,0,.227.209c.828.075,1.66.126,2.489.2a.345.345,0,0,0,.4-.228,2.6,2.6,0,0,1,1.807-1.459A8.878,8.878,0,0,1,4228.543-436.972Zm-.162-12.871a.47.47,0,0,0,0,.13,11.857,11.857,0,0,0,.991,3.259.361.361,0,0,0,.39.247,2.7,2.7,0,0,1,2.512,1.438.339.339,0,0,0,.377.218c.858-.1,1.718-.171,2.575-.273a.382.382,0,0,0,.257-.224,3.092,3.092,0,0,1,.906-1.442.377.377,0,0,0,.085-.327,12.883,12.883,0,0,1-.774-3.851,1.154,1.154,0,0,0-.48-1.077.532.532,0,0,1-.178-.21c-.095-.191-.241-.209-.434-.192-1.259.108-2.52.2-3.779.315a.377.377,0,0,0-.255.189,2.534,2.534,0,0,1-.88,1.129A14.729,14.729,0,0,1,4228.381-449.843Zm2.394,6.422a.941.941,0,0,0-.9-.941.941.941,0,0,0-.947.9.929.929,0,0,0,.918.952A.93.93,0,0,0,4230.774-443.422Zm7.408-10.187a.937.937,0,0,0-.9-.942.938.938,0,0,0-.948.926.933.933,0,0,0,.917.923A.93.93,0,0,0,4238.183-453.609ZM4228-453.624a.938.938,0,0,0-.923.92.931.931,0,0,0,.911.929.932.932,0,0,0,.939-.932A.94.94,0,0,0,4228-453.624Zm11.113,18.521a.94.94,0,0,0-.918-.925.942.942,0,0,0-.931.914.928.928,0,0,0,.935.935A.926.926,0,0,0,4239.109-435.1Zm-10.187.923a.942.942,0,0,0-.922-.922.941.941,0,0,0-.927.948.927.927,0,0,0,.938.9A.927.927,0,0,0,4228.922-434.18Zm-9.26-19.443a.941.941,0,0,0-.917-.927.935.935,0,0,0-.932.91.927.927,0,0,0,.93.939A.934.934,0,0,0,4219.662-453.623Zm0,8.334a.936.936,0,0,0-.928.915.925.925,0,0,0,.9.934.931.931,0,0,0,.945-.926A.941.941,0,0,0,4219.666-445.289Zm18.531,1.849a.927.927,0,0,0,.912-.927.937.937,0,0,0-.921-.922.94.94,0,0,0-.929.946A.93.93,0,0,0,4238.2-443.44Zm-17.61,8.352a.944.944,0,0,0-.906-.94.94.94,0,0,0-.943.9.924.924,0,0,0,.919.949A.931.931,0,0,0,4220.587-435.089Z" transform="translate(-4212.194 458.597)"/></g><g transform="translate(2424.299 1934.154)"><path class="f" d="M2086.055-457.755a1.283,1.283,0,0,0-1.38-.842c-4.293.013-8.586.007-12.879.007-1,0-1.38.379-1.38,1.377q0,1.581,0,3.163c0,.876.4,1.285,1.27,1.286,4.369,0,8.739,0,13.108.007a1.236,1.236,0,0,0,1.261-.821Z" transform="translate(-2052.653 482.449)"/><path class="f" d="M2086.057-246.433a1.278,1.278,0,0,0-1.355-.83c-4.3.013-8.608.007-12.912.007-1,0-1.372.378-1.373,1.383q0,1.565,0,3.13c0,.911.4,1.316,1.311,1.316,4.326,0,8.651-.006,12.977.007a1.276,1.276,0,0,0,1.351-.838Z" transform="translate(-2052.656 255.21)"/><path class="f" d="M1960.161-141.463q-3.228,0-6.456,0c-.941,0-1.331.389-1.332,1.321q0,1.63,0,3.261a1.109,1.109,0,0,0,1.25,1.243q6.571,0,13.141,0a1.109,1.109,0,0,0,1.25-1.244q0-1.647,0-3.293c0-.888-.4-1.287-1.3-1.288Q1963.438-141.466,1960.161-141.463Z" transform="translate(-1943.493 141.465)"/><path class="f" d="M1842.16-452.706h6.489c.978,0,1.355-.381,1.355-1.366q0-1.581,0-3.163a1.13,1.13,0,0,0-1.3-1.3h-13.043c-.9,0-1.3.4-1.3,1.288q0,1.647,0,3.293a1.1,1.1,0,0,0,1.241,1.243Q1838.882-452.7,1842.16-452.706Z" transform="translate(-1834.363 482.392)"/><path class="f" d="M1960.205-347.022h6.457c.963,0,1.349-.384,1.349-1.339q0-1.614,0-3.228a1.116,1.116,0,0,0-1.266-1.261q-6.554,0-13.109,0a1.116,1.116,0,0,0-1.267,1.26q0,1.663,0,3.326a1.1,1.1,0,0,0,1.249,1.241Q1956.912-347.017,1960.205-347.022Z" transform="translate(-1943.488 368.755)"/><path class="f" d="M1842.192-247.188H1835.7c-.96,0-1.339.382-1.34,1.344q0,1.63,0,3.261a1.09,1.09,0,0,0,1.2,1.222q6.619.006,13.239,0a1.089,1.089,0,0,0,1.2-1.2c.008-1.13.006-2.261,0-3.391a1.1,1.1,0,0,0-1.256-1.237Q1845.469-247.192,1842.192-247.188Z" transform="translate(-1834.363 255.142)"/><path class="f" d="M1838.681-347.032c.695,0,1.39,0,2.085,0a1.089,1.089,0,0,0,1.229-1.221q.009-1.694,0-3.388a1.091,1.091,0,0,0-1.235-1.218q-2.1-.006-4.2,0a1.111,1.111,0,0,0-1.236,1.256q0,1.661,0,3.323a1.106,1.106,0,0,0,1.242,1.248C1837.269-347.028,1837.975-347.032,1838.681-347.032Z" transform="translate(-1835.248 368.765)"/><path class="f" d="M2191.881-352.872c-.7,0-1.39,0-2.085,0a1.092,1.092,0,0,0-1.236,1.217q-.01,1.694,0,3.388a1.087,1.087,0,0,0,1.228,1.222q2.1.008,4.2,0a1.1,1.1,0,0,0,1.243-1.246q0-1.661,0-3.323a1.119,1.119,0,0,0-1.268-1.259C2193.271-352.874,2192.576-352.872,2191.881-352.872Z" transform="translate(-2161.905 368.776)"/><path class="f" d="M1838.646-141.479c-.7,0-1.39,0-2.085,0a1.1,1.1,0,0,0-1.239,1.249q0,1.661,0,3.323a1.11,1.11,0,0,0,1.24,1.253q2.1.006,4.2,0a1.09,1.09,0,0,0,1.231-1.221q.01-1.694,0-3.388a1.089,1.089,0,0,0-1.232-1.217h-2.117Z" transform="translate(-1835.248 141.481)"/><path class="f" d="M2191.876-141.479c-.695,0-1.39,0-2.085,0a1.085,1.085,0,0,0-1.225,1.223q-.008,1.678,0,3.355a1.1,1.1,0,0,0,1.239,1.246q2.1.005,4.2,0a1.1,1.1,0,0,0,1.232-1.227q.005-1.678,0-3.355a1.1,1.1,0,0,0-1.246-1.242C2193.289-141.483,2192.583-141.479,2191.876-141.479Z" transform="translate(-2161.911 141.481)"/></g><g transform="translate(2968 1934)"><path class="f" d="M3837.735-184.913a1.088,1.088,0,0,1-1.14.646c-1.507-.023-3.015-.008-4.523-.008h-.339c-.193-1.549-.384-3.077-.577-4.625.117-.006.2-.014.287-.014,1.7,0,3.4,0,5.1-.005.214,0,.294.06.344.272.232.986.485,1.967.733,2.95.028.109.074.214.112.321Z" transform="translate(-3808.044 209.211)"/><path class="f" d="M3711.126-458.6a1.068,1.068,0,0,1,.644,1.165c-.028.391-.005.786-.005,1.177h-1.707c0-.553-.027-1.126.01-1.694.022-.334.321-.5.595-.649Z" transform="translate(-3696.049 458.597)"/><g transform="translate(0 2.546)"><path class="f" d="M3633.272-100.915a.721.721,0,0,0-.088-.062.883.883,0,0,1-.531-.987.883.883,0,0,1,.913-.69c.713,0,1.427,0,2.166,0,.107-.424.212-.84.319-1.264h6.5l.317,1.264c.724,0,1.446,0,2.167,0a.876.876,0,0,1,.8.425.86.86,0,0,1-.293,1.187c-.072.044-.144.086-.216.129Z" transform="translate(-3624.458 128.061)"/><path class="f" d="M3524-185.278c.192-.725.386-1.449.576-2.174.1-.392.189-.788.3-1.178a.287.287,0,0,1,.2-.178c1.807-.008,3.615,0,5.422,0,.017,0,.034.015.081.037L3530-184.19c-.108,0-.21.013-.312.013-1.517,0-3.035-.015-4.552.009a1.089,1.089,0,0,1-1.14-.646Z" transform="translate(-3524 206.567)"/><path class="f" d="M3653.512-397h-4.291a.922.922,0,0,1-1.062-.836,5.51,5.51,0,0,1,4.675-6.654,5.5,5.5,0,0,1,6.2,5.693,5.944,5.944,0,0,1-.157,1.057.854.854,0,0,1-.928.738Q3655.73-397,3653.512-397Z" transform="translate(-3638.688 406.056)"/><path class="f" d="M3627.112-184.058l.576-4.6h5.627v4.6Z" transform="translate(-3619.353 206.427)"/><path class="f" d="M3733.018-184.032v-4.6h5.629c.191,1.525.383,3.054.577,4.6Z" transform="translate(-3717.291 206.403)"/><path class="f" d="M3548.06-273.62c-.192,1.541-.383,3.069-.576,4.607h-5.443c.127-.512.252-1.012.376-1.512.2-.8.392-1.591.594-2.385a.866.866,0,0,1,.884-.727c1.333-.006,2.665,0,4,0C3547.939-273.638,3547.986-273.628,3548.06-273.62Z" transform="translate(-3540.684 285.011)"/><path class="f" d="M3826.549-269.007h-5.427c-.192-1.529-.383-3.057-.578-4.611.1-.006.185-.015.268-.015q1.9,0,3.795,0a.894.894,0,0,1,1,.77q.455,1.809.907,3.619C3826.528-269.172,3826.535-269.1,3826.549-269.007Z" transform="translate(-3798.231 285.006)"/><path class="f" d="M3638.309-273.468h4.829v4.6h-5.4C3637.927-270.4,3638.117-271.922,3638.309-273.468Z" transform="translate(-3629.178 284.852)"/><path class="f" d="M3733.032-268.817v-4.609h4.831l.575,4.609Z" transform="translate(-3717.304 284.813)"/><path class="f" d="M3630.354-423.5l-1.18,1.156c-.333-.311-.76-.657-1.122-1.062a.817.817,0,0,1,.108-1.126.849.849,0,0,1,1.159-.015C3629.693-424.2,3630.038-423.821,3630.354-423.5Z" transform="translate(-3620.058 424.766)"/><path class="f" d="M3783.073-422.288l-1.2-1.219c.3-.3.646-.682,1.021-1.028a.852.852,0,0,1,1.18.026.853.853,0,0,1,.031,1.2C3783.766-422.941,3783.395-422.6,3783.073-422.288Z" transform="translate(-3762.471 424.761)"/><path class="f" d="M3817.321-341.209v-1.709c.538,0,1.095-.036,1.645.012a.824.824,0,0,1,.7.865.832.832,0,0,1-.716.823C3818.4-341.178,3817.856-341.209,3817.321-341.209Z" transform="translate(-3795.25 349.089)"/><path class="f" d="M3596.482-342.989v1.706c-.544,0-1.111.041-1.669-.013a.811.811,0,0,1-.672-.881.84.84,0,0,1,.739-.8C3595.415-343.015,3595.954-342.989,3596.482-342.989Z" transform="translate(-3588.862 349.151)"/></g></g><g transform="translate(2820.577 1782.579)"><path class="f" d="M1366-398.617a1,1,0,0,1,1.077-.671q13.352.011,26.7.005c.758,0,1.064.3,1.065,1.052,0,.844,0,1.688,0,2.575h-28.454c-.13,0-.26.015-.391.024Z" transform="translate(-1366 402.901)"/><path class="f" d="M1378.159-243.11a4.121,4.121,0,0,1-1.721-.716,3.349,3.349,0,0,1-1.417-2.693c-.027-3.687-.011-7.375-.011-11.062a.736.736,0,0,1,.017-.1h7.107v.337q0,5.222,0,10.443a3.551,3.551,0,0,1-3.056,3.755.306.306,0,0,0-.073.038Z" transform="translate(-1374.328 271.951)"/><path class="f" d="M1648.717-243.2a4.316,4.316,0,0,1-1.555-.611,3.468,3.468,0,0,1-1.57-2.957c-.01-3.6,0-7.206,0-10.809a2.054,2.054,0,0,1,.021-.2h7.1v.306q0,5.278,0,10.556a3.551,3.551,0,0,1-3.047,3.679.589.589,0,0,0-.1.041Z" transform="translate(-1624.548 272.042)"/><path class="f" d="M1513.452-243.14a8.014,8.014,0,0,1-1.133-.389,3.32,3.32,0,0,1-1.96-3.054c-.031-3.659-.011-7.318-.012-10.978,0-.046.006-.091.011-.155h7.1v.324c0,3.49-.035,6.981.013,10.471a3.621,3.621,0,0,1-3.047,3.741c-.025,0-.047.026-.071.04Z" transform="translate(-1499.481 271.981)"/><path class="f" d="M1366-328.545c.093-.008.185-.023.278-.024h8.215v1.014c0,.544,0,1.088,0,1.632a.876.876,0,0,1-.974.975c-2.148,0-4.3-.007-6.446.006a1,1,0,0,1-1.072-.674Z" transform="translate(-1366 337.503)"/><path class="f" d="M1416.551-445.381h-25.006c.038-.11.061-.2.1-.291a2.587,2.587,0,0,1,2.485-1.621c2.788-.013,5.576,0,8.364,0q5.717,0,11.434,0a2.607,2.607,0,0,1,2.481,1.544C1416.463-445.646,1416.5-445.529,1416.551-445.381Z" transform="translate(-1389.623 447.301)"/><path class="f" d="M1644.949-328.3c0,.954.013,1.882-.006,2.809a.84.84,0,0,1-.92.792q-2.252,0-4.5,0c-.7,0-1.407,0-2.111,0a.867.867,0,0,1-.949-.943c-.005-.816,0-1.632,0-2.448,0-.064.011-.127.019-.21Z" transform="translate(-1616.108 337.255)"/><path class="f" d="M1501.375-328.345h8.471v1.05c0,.544,0,1.089,0,1.633a.846.846,0,0,1-.907.921q-3.337.006-6.674,0a.81.81,0,0,1-.881-.735C1501.359-326.423,1501.375-327.369,1501.375-328.345Z" transform="translate(-1491.184 337.296)"/></g><g transform="translate(2908 1850)"><path class="f" d="M3754.334,211a18.491,18.491,0,0,1,3.395,1.954,17.2,17.2,0,0,1,5.782,7.448.858.858,0,0,1-.194,1.037.764.764,0,0,1-.948.076,1.412,1.412,0,0,1-.42-.558,15.52,15.52,0,0,0-8.112-8.346.827.827,0,0,1-.534-.745.8.8,0,0,1,.4-.743,2.47,2.47,0,0,1,.245-.123Z" transform="translate(-3736.531 -211)"/><path class="f" d="M3722.211,379.01c0,.85,0,1.7,0,2.549a7.763,7.763,0,0,1-6.326,7.673,4.259,4.259,0,0,1-2.42-.4,7.705,7.705,0,0,1-4.964-7.23c-.021-1.874-.006-3.749,0-5.624a.841.841,0,0,1,.663-.927c1.928-.685,3.858-1.366,5.784-2.058a1.166,1.166,0,0,1,.832,0c1.918.687,3.839,1.365,5.757,2.049a.853.853,0,0,1,.678.973Q3722.212,377.515,3722.211,379.01Zm-6.984,2.34c-.246-.26-.459-.5-.691-.726a.83.83,0,1,0-1.175,1.17q.627.645,1.271,1.272a.818.818,0,0,0,1.211,0q1.211-1.2,2.4-2.41a.993.993,0,0,0,.241-.452.779.779,0,0,0-.415-.882.8.8,0,0,0-.989.161C3716.475,380.088,3715.874,380.7,3715.227,381.351Z" transform="translate(-3695.036 -360.933)"/><path class="f" d="M3551.188,244.778c-.689-.244-1.324-.461-1.951-.7-.09-.034-.155-.17-.205-.271a12.421,12.421,0,0,0-20.188-3.391c-.059.058-.115.12-.169.182a.78.78,0,0,0,.007,1.115.81.81,0,0,0,1.167,0,20.1,20.1,0,0,1,1.571-1.4A10.7,10.7,0,0,1,3546.9,243.3c.029.046.052.1.066.123-.468.15-.932.287-1.386.45a.275.275,0,0,1-.381-.127,8.657,8.657,0,0,0-4.353-3.32,8.874,8.874,0,0,0-9.52,2.169,3.071,3.071,0,0,1-1.753,1.018,2.575,2.575,0,0,1-2.474-1.254,2.382,2.382,0,0,1,.244-2.744,13.21,13.21,0,0,1,3.734-2.96,14.067,14.067,0,0,1,20,7.78C3551.1,244.526,3551.136,244.621,3551.188,244.778Z" transform="translate(-3526.773 -233.173)"/><path class="f" d="M3588.271,327.107c-.528.19-1.019.376-1.518.535a.381.381,0,0,1-.293-.121,5.875,5.875,0,0,0-3.185-1.663,5.778,5.778,0,0,0-6.6,4.609,9.315,9.315,0,0,0-.108,1.432c-.015,1.107,0,2.215,0,3.323a.81.81,0,0,1-.521.805.746.746,0,0,1-.885-.191,1.01,1.01,0,0,1-.244-.565c-.007-1.467-.054-2.939.042-4.4a7.409,7.409,0,0,1,13.2-3.927C3588.188,326.986,3588.218,327.033,3588.271,327.107Z" transform="translate(-3571.336 -315.755)"/><path class="f" d="M3626.413,370.466a2.6,2.6,0,0,0-1.312,1.1,2.491,2.491,0,0,0-1.761-.192,2.445,2.445,0,0,0-1.819,2.423c-.005,2.124,0,4.247,0,6.371,0,1.108,0,2.216,0,3.324a.817.817,0,0,1-.749.82.834.834,0,0,1-.886-.671,1.616,1.616,0,0,1-.022-.33q0-1.884,0-3.767c0-1.93-.006-3.859,0-5.789a4.088,4.088,0,0,1,3.29-4.039,3.98,3.98,0,0,1,3.091.613C3626.291,370.362,3626.335,370.4,3626.413,370.466Z" transform="translate(-3612.964 -357.884)"/><path class="f" d="M3665.688,414.464c0,1.411,0,2.823,0,4.234a.82.82,0,0,1-1.212.764.878.878,0,0,1-.45-.855q0-3.473,0-6.946c0-.461,0-.923,0-1.384a.848.848,0,0,1,.838-.907.832.832,0,0,1,.823.915Q3665.691,412.374,3665.688,414.464Z" transform="translate(-3653.864 -394.685)"/></g><g class="m" transform="matrix(1, 0, 0, 1, 2398, 1708)"><g class="d" transform="translate(259 6)"><circle class="j" cx="55.5" cy="55.5" r="55.5"/><circle class="k" cx="55.5" cy="55.5" r="55"/></g></g><ellipse class="e" cx="50" cy="49.5" rx="50" ry="49.5" transform="translate(2663 1720)"/><path class="e" d="M21,0,42,34H0Z" transform="translate(2733 1831) rotate(180)"/><g class="l" transform="matrix(1, 0, 0, 1, 2398, 1708)"><ellipse class="g" cx="43" cy="42.5" rx="43" ry="42.5" transform="translate(272 19)"/></g><g transform="translate(2690 1747)"><path class="e" d="M4100.932,569.764V558.576h8.833a7.487,7.487,0,0,1-.013-6.758h-8.792v-3.474c5.707-.246,9.319-3.118,10.861-8.668l6.188,2.561c-.769,1.859-1.528,3.7-2.318,5.611a7.554,7.554,0,0,1,6.218,2.6c.788-1.9,1.553-3.74,2.335-5.622l11.887,4.921,2.063-4.985-30.005-12.427c-.69,1.662-1.368,3.3-2.065,4.976l3.043,1.273a7.877,7.877,0,0,1-8.235,6.984v-7.422h-2.7v31.624Z" transform="translate(-4098.236 -523.764)"/><path class="e" d="M4033.479,437q-1.147,2.8-2.295,5.6c-.061.148-.115.3-.184.482l32.467,13.449c.071-.153.142-.293.2-.437q1.068-2.566,2.134-5.133c.056-.135.133-.261.2-.391v-.09c-.136-.061-.271-.125-.408-.182q-13.121-5.436-26.242-10.872c-1.93-.8-3.855-1.614-5.782-2.422Z" transform="translate(-4020.002 -437)"/><path class="e" d="M4290.155,739.63a4.659,4.659,0,1,0,4.651-4.582A4.7,4.7,0,0,0,4290.155,739.63Z" transform="translate(-4276.757 -708.271)"/></g><g transform="translate(2668 1931)"><g transform="translate(0)"><path class="h" d="M0,15A15,15,0,1,1,15,30,15,15,0,0,1,0,15Z"/><g transform="translate(11.261 11.261)"><path class="i" d="M3.739,0,0,3.739,3.739,7.478" transform="translate(0)"/><path class="i" d="M7.478,0H0" transform="translate(0 3.739)"/></g></g><g transform="translate(58)"><path class="h" d="M30,15A15,15,0,1,0,15,30,15,15,0,0,0,30,15Z" transform="translate(0)"/><g transform="translate(11.261 11.261)"><path class="i" d="M0,0,3.739,3.739,0,7.478" transform="translate(3.739)"/><path class="i" d="M0,0H7.478" transform="translate(0 3.739)"/></g></g></g></g></svg>