<svg xmlns="http://www.w3.org/2000/svg" width="70.087" height="67.264" viewBox="0 0 70.087 67.264"><defs><style>.a{fill:#ffd45e;}.b,.c{fill:#142011;}.b{font-size:18px;font-family:LibreFranklin-Black, Libre Franklin;font-weight:800;}.c{font-size:16px;font-family:LibreFranklin-Bold, Libre Franklin;font-weight:700;}</style></defs><g transform="translate(-94.127 -541.368)"><g transform="translate(-3.873 -3.717)"><path class="a" d="M694,2979.075a1.671,1.671,0,0,1,1.752-1.015c4.607.023,9.214,0,13.822.023a.846.846,0,0,0,.936-.634c.567-1.364,1.218-2.694,1.837-4.036.082-.178.173-.354.306-.624h-2.933c-1.574,0-3.148,0-4.721,0-1.04,0-1.686-.543-1.669-1.384.016-.812.659-1.349,1.648-1.35,3.011-.005,6.021.008,9.032-.019a1.245,1.245,0,0,0,.848-.381,27.482,27.482,0,0,1,14.968-9.5c.385-.094.573-.243.553-.681-.037-.819-.029-1.642,0-2.462a.578.578,0,0,0-.45-.637,4.636,4.636,0,0,1-3.035-5.147,4.69,4.69,0,0,1,4.77-3.88c3.125-.014,6.249-.008,9.374,0a4.668,4.668,0,0,1,1.651,9.119c-.063.024-.125.052-.206.087v3.261a63.288,63.288,0,0,1,5.907,2.275c8.83,4.422,14.023,11.568,15.421,21.344a26.85,26.85,0,0,1-4.042,18.373,1.418,1.418,0,0,1-1.526.795,1.173,1.173,0,0,1-1.067-1.087,2.5,2.5,0,0,1,.39-1.324,25.387,25.387,0,0,0,3.326-8.549,24.9,24.9,0,1,0-30.625,19.424,24.394,24.394,0,0,0,19.324-2.942c.136-.083.268-.174.409-.249a1.366,1.366,0,1,1,1.413,2.337,26.614,26.614,0,0,1-8.369,3.6,27.581,27.581,0,0,1-32.208-16.456.819.819,0,0,0-.915-.581c-2.828.018-5.657.01-8.485.007a4.98,4.98,0,0,1-.886-.052,1.34,1.34,0,0,1-.05-2.614,4.242,4.242,0,0,1,.883-.067q3.9-.007,7.8,0c.133,0,.266-.019.432-.031l-.841-5.228h-.662c-1.711,0-3.421,0-5.132,0-.976,0-1.6-.568-1.584-1.4a1.4,1.4,0,0,1,1.584-1.333c1.913-.007,3.826,0,5.75,0l.674-5.247h-.777c-4.219,0-8.439-.014-12.658.012A2.053,2.053,0,0,1,694,2979.9Zm42.432-25.158c1.526,0,3.052.006,4.578,0a3.263,3.263,0,0,0,.941-.109,1.882,1.882,0,0,0,1.285-2.02,1.939,1.939,0,0,0-2.068-1.692q-4.749-.022-9.5,0a1.922,1.922,0,1,0,.048,3.825C733.289,2953.924,734.861,2953.917,736.432,2953.917Zm-3.289,5.514h6.534V2956.7h-6.534Z" transform="translate(-596 -2402.258)"/><path class="a" d="M1020.292,3259.658a1.329,1.329,0,0,1,1.387-1.3,1.351,1.351,0,1,1-.105,2.7A1.335,1.335,0,0,1,1020.292,3259.658Z" transform="translate(-862.631 -2656.409)"/><circle class="a" cx="22.5" cy="22.5" r="22.5" transform="translate(117.873 561.717)"/></g><text class="b" transform="translate(124 578)"><tspan x="0" y="0">05</tspan></text><text class="c" transform="translate(118 593)"><tspan x="0" y="0">mins</tspan></text></g></svg>